<svg xmlns="http://www.w3.org/2000/svg" xmlns:xlink="http://www.w3.org/1999/xlink" width="500" zoomAndPan="magnify" viewBox="0 0 375 374.999991" height="500" preserveAspectRatio="xMidYMid meet" version="1.0"><defs><clipPath id="717efc23d4"><path d="M 118.097656 183.0625 L 256.828125 183.0625 L 256.828125 276.375 L 118.097656 276.375 Z M 118.097656 183.0625 " clip-rule="nonzero"/></clipPath><clipPath id="e8e212ffab"><path d="M 258.453125 178.191406 L 287.523438 178.191406 L 287.523438 224 L 258.453125 224 Z M 258.453125 178.191406 " clip-rule="nonzero"/></clipPath><clipPath id="ddc9dbf82d"><path d="M 87.5 178 L 117 178 L 117 224 L 87.5 224 Z M 87.5 178 " clip-rule="nonzero"/></clipPath><clipPath id="67022c006b"><path d="M 99 98.625 L 276 98.625 L 276 185 L 99 185 Z M 99 98.625 " clip-rule="nonzero"/></clipPath></defs><path fill="#231f20" d="M 242.453125 189.566406 C 241.578125 189.566406 240.75 189.214844 240.140625 188.570312 C 239.492188 187.886719 239.03125 186.972656 238.117188 185.15625 C 236.359375 181.664062 233.089844 175.164062 226.324219 166.605469 C 223.5 163.027344 222.34375 161.789062 221.511719 160.976562 C 220.777344 160.257812 218.75 158.371094 215.855469 156.355469 L 215.695312 156.246094 C 215.589844 156.171875 215.425781 156.058594 215.246094 155.9375 C 213.429688 158.425781 211.261719 160.464844 208.777344 162.015625 C 202.90625 165.671875 196.953125 165.527344 192.171875 165.414062 L 191.8125 165.40625 C 191.65625 165.402344 176.105469 165.046875 159.492188 166.195312 L 158.710938 166.246094 C 153.039062 166.632812 147.179688 167.035156 142.4375 169.558594 C 136.230469 172.863281 134.152344 180.394531 133.039062 186.585938 C 132.808594 187.867188 131.910156 188.929688 130.695312 189.351562 C 129.535156 189.757812 127.875 189.632812 126.695312 188.058594 C 124.058594 184.566406 123.5 179.484375 123.089844 175.773438 L 123.074219 175.625 C 122.144531 167.167969 121.632812 155.921875 123.253906 152.0625 C 124.40625 149.3125 127.878906 142.160156 135.191406 135.109375 C 140.785156 129.707031 148.410156 124.964844 157.855469 121.007812 C 167.179688 117.101562 175.519531 115.160156 178.667969 114.507812 C 187.875 112.597656 196.652344 111.914062 204.761719 112.480469 C 210.488281 112.878906 215.316406 113.589844 219.515625 114.648438 C 224.644531 115.949219 228.625 118.40625 231.027344 121.753906 C 232.296875 123.527344 233.089844 125.378906 233.855469 127.167969 C 234.671875 129.078125 235.445312 130.882812 236.699219 132.222656 C 238.121094 133.742188 239.890625 134.996094 241.761719 136.328125 C 243.667969 137.6875 245.640625 139.09375 247.410156 140.894531 C 251.632812 145.195312 256.835938 152.890625 257.589844 160.410156 C 258.277344 167.261719 255.179688 173.394531 252.40625 177.972656 C 252.074219 178.511719 250.410156 181.097656 248.804688 183.441406 C 245.410156 188.402344 244.457031 189.371094 242.800781 189.546875 C 242.6875 189.5625 242.570312 189.566406 242.453125 189.566406 Z M 126.894531 185.480469 C 126.894531 185.484375 126.890625 185.484375 126.890625 185.488281 C 126.890625 185.484375 126.894531 185.484375 126.894531 185.480469 Z M 214.4375 149.03125 C 216.101562 149.03125 217.675781 150.019531 219.269531 151.132812 L 219.417969 151.238281 C 222.585938 153.4375 224.824219 155.492188 225.878906 156.519531 C 227.007812 157.621094 228.351562 159.105469 231.226562 162.742188 C 237.535156 170.726562 240.96875 177.011719 242.964844 180.914062 C 244.601562 178.570312 246.519531 175.636719 247.066406 174.738281 C 249.335938 170.992188 251.882812 166.046875 251.378906 161.035156 C 250.820312 155.496094 246.746094 149.125 242.953125 145.257812 C 241.570312 143.851562 239.902344 142.664062 238.136719 141.410156 C 236.097656 139.957031 233.992188 138.457031 232.140625 136.480469 C 230.136719 134.34375 229.0625 131.832031 228.113281 129.617188 C 227.449219 128.066406 226.820312 126.601562 225.949219 125.382812 C 224.015625 122.6875 220.546875 121.34375 217.980469 120.695312 C 214.144531 119.726562 209.679688 119.074219 204.328125 118.699219 C 196.789062 118.175781 188.582031 118.820312 179.941406 120.609375 C 175.527344 121.523438 152.84375 126.738281 139.527344 139.59375 C 132.867188 146.015625 129.792969 152.605469 129.011719 154.472656 C 128.519531 155.644531 127.902344 162.429688 129.28125 174.945312 L 129.296875 175.089844 C 129.332031 175.414062 129.371094 175.75 129.40625 176.09375 C 131.292969 171.300781 134.316406 166.816406 139.503906 164.054688 C 145.421875 160.902344 152.253906 160.4375 158.285156 160.027344 L 159.0625 159.972656 C 175.976562 158.808594 191.804688 159.167969 191.960938 159.171875 L 192.324219 159.179688 C 196.683594 159.285156 201.1875 159.394531 205.472656 156.722656 C 207.707031 155.328125 209.613281 153.355469 211.132812 150.859375 C 211.671875 149.960938 212.535156 149.347656 213.5625 149.125 C 213.855469 149.0625 214.148438 149.03125 214.4375 149.03125 Z M 216.492188 154.058594 C 216.488281 154.0625 216.488281 154.066406 216.484375 154.070312 C 216.488281 154.066406 216.488281 154.0625 216.492188 154.058594 Z M 213.804688 152.46875 L 213.808594 152.46875 L 213.804688 152.46875 " fill-opacity="1" fill-rule="evenodd"/><g clip-path="url(#717efc23d4)"><path fill="#231f20" d="M 189.238281 276.398438 C 185.867188 276.398438 182.03125 276.074219 177.898438 275.160156 C 174.21875 274.351562 164.640625 271.632812 155.210938 263.917969 C 150.6875 260.21875 142.394531 252.050781 137.679688 238.949219 C 136.195312 234.828125 135.304688 230.332031 134.875 227.761719 C 131.339844 226.378906 128.082031 224.085938 125.363281 221.050781 C 122.210938 217.535156 120.015625 213.28125 119.011719 208.75 C 118.066406 204.472656 118.246094 200.070312 119.53125 196.015625 C 120.960938 191.515625 123.675781 187.503906 127.601562 184.078125 C 128.902344 182.945312 130.871094 183.078125 132.007812 184.378906 C 133.140625 185.671875 133.007812 187.644531 131.707031 188.777344 C 123.886719 195.59375 124.214844 203.375 125.109375 207.402344 C 126.683594 214.519531 132.082031 220.558594 138.542969 222.429688 C 139.730469 222.773438 140.605469 223.785156 140.769531 225.007812 C 141.175781 228.035156 142.152344 232.949219 143.550781 236.839844 C 147.917969 248.96875 155.925781 256.441406 159.167969 259.09375 C 167.554688 265.957031 176.003906 268.359375 179.246094 269.074219 C 188.472656 271.105469 196.113281 269.757812 198.96875 269.082031 C 206.765625 267.246094 211.992188 263.65625 214.226562 262.121094 C 215.835938 261.015625 220.042969 257.898438 224.304688 252.863281 C 230.527344 245.503906 234.929688 235.933594 237.386719 224.425781 C 237.652344 223.171875 238.65625 222.210938 239.917969 222 C 245.25 221.101562 249.898438 213.898438 250.496094 205.601562 C 250.71875 202.554688 250.71875 192.371094 241.449219 189.398438 C 239.808594 188.871094 238.90625 187.113281 239.433594 185.472656 C 239.960938 183.835938 241.71875 182.933594 243.363281 183.460938 C 252.402344 186.363281 257.519531 195.019531 256.726562 206.050781 C 256.355469 211.136719 254.730469 216.121094 252.148438 220.085938 C 249.71875 223.820312 246.550781 226.429688 243.066406 227.613281 C 242.035156 231.992188 240.707031 236.167969 239.113281 240.050781 C 236.480469 246.457031 233.101562 252.121094 229.070312 256.886719 C 224.492188 262.300781 220.019531 265.707031 217.761719 267.261719 C 215.242188 268.988281 209.335938 273.042969 200.40625 275.152344 C 198.003906 275.71875 194.109375 276.398438 189.238281 276.398438 " fill-opacity="1" fill-rule="evenodd"/></g><g clip-path="url(#e8e212ffab)"><path fill="#231f20" d="M 272.789062 223.902344 L 261.972656 223.902344 C 260.25 223.902344 258.851562 222.507812 258.851562 220.785156 L 258.851562 181.363281 C 258.851562 179.640625 260.25 178.242188 261.972656 178.242188 L 272.789062 178.242188 C 280.914062 178.242188 287.523438 184.84375 287.523438 192.960938 L 287.523438 209.183594 C 287.523438 217.300781 280.914062 223.902344 272.789062 223.902344 Z M 265.09375 217.667969 L 272.789062 217.667969 C 277.472656 217.667969 281.28125 213.859375 281.28125 209.183594 L 281.28125 192.960938 C 281.28125 188.285156 277.472656 184.480469 272.789062 184.480469 L 265.09375 184.480469 L 265.09375 217.667969 " fill-opacity="1" fill-rule="evenodd"/></g><g clip-path="url(#ddc9dbf82d)"><path fill="#231f20" d="M 113.296875 223.902344 L 102.484375 223.902344 C 94.359375 223.902344 87.75 217.300781 87.75 209.183594 L 87.75 192.960938 C 87.75 184.84375 94.359375 178.242188 102.484375 178.242188 L 113.296875 178.242188 C 115.023438 178.242188 116.421875 179.640625 116.421875 181.363281 L 116.421875 220.785156 C 116.421875 222.507812 115.023438 223.902344 113.296875 223.902344 Z M 102.484375 184.480469 C 97.800781 184.480469 93.992188 188.285156 93.992188 192.960938 L 93.992188 209.183594 C 93.992188 213.859375 97.800781 217.667969 102.484375 217.667969 L 110.175781 217.667969 L 110.175781 184.480469 L 102.484375 184.480469 " fill-opacity="1" fill-rule="evenodd"/></g><path fill="#231f20" d="M 260.769531 242.238281 L 207.796875 242.238281 C 206.074219 242.238281 204.675781 240.839844 204.675781 239.121094 C 204.675781 237.398438 206.074219 236.003906 207.796875 236.003906 L 260.769531 236.003906 C 265.5625 236.003906 269.464844 232.105469 269.464844 227.3125 L 269.464844 220.785156 C 269.464844 219.0625 270.863281 217.667969 272.585938 217.667969 C 274.308594 217.667969 275.710938 219.0625 275.710938 220.785156 L 275.710938 227.3125 C 275.710938 235.542969 269.007812 242.238281 260.769531 242.238281 " fill-opacity="1" fill-rule="evenodd"/><path fill="#231f20" d="M 201.710938 248.675781 L 195.65625 248.675781 C 190.578125 248.675781 186.445312 244.550781 186.445312 239.480469 L 186.445312 238.757812 C 186.445312 233.6875 190.578125 229.5625 195.65625 229.5625 L 201.710938 229.5625 C 206.785156 229.5625 210.917969 233.6875 210.917969 238.757812 L 210.917969 239.480469 C 210.917969 244.550781 206.785156 248.675781 201.710938 248.675781 Z M 195.65625 235.800781 C 194.019531 235.800781 192.691406 237.125 192.691406 238.757812 L 192.691406 239.480469 C 192.691406 241.113281 194.019531 242.441406 195.65625 242.441406 L 201.710938 242.441406 C 203.34375 242.441406 204.675781 241.113281 204.675781 239.480469 L 204.675781 238.757812 C 204.675781 237.125 203.34375 235.796875 201.710938 235.796875 L 195.65625 235.800781 " fill-opacity="1" fill-rule="evenodd"/><g clip-path="url(#67022c006b)"><path fill="#231f20" d="M 272.515625 184.480469 C 270.882812 184.480469 269.507812 183.207031 269.402344 181.558594 C 268.160156 161.757812 259.667969 143.058594 245.496094 128.902344 C 229.976562 113.398438 209.425781 104.859375 187.636719 104.859375 C 144.484375 104.859375 108.566406 138.550781 105.871094 181.558594 C 105.761719 183.277344 104.277344 184.582031 102.558594 184.472656 C 100.839844 184.363281 99.53125 182.882812 99.640625 181.164062 C 100.34375 169.921875 103.171875 159.066406 108.046875 148.898438 C 112.773438 139.042969 119.226562 130.222656 127.226562 122.683594 C 143.6875 107.167969 165.140625 98.625 187.636719 98.625 C 199.488281 98.625 211.011719 100.964844 221.882812 105.574219 C 232.367188 110.027344 241.800781 116.390625 249.910156 124.492188 C 265.160156 139.722656 274.296875 159.851562 275.636719 181.164062 C 275.742188 182.882812 274.433594 184.363281 272.714844 184.472656 C 272.648438 184.476562 272.582031 184.480469 272.515625 184.480469 " fill-opacity="1" fill-rule="evenodd"/></g></svg>