<svg xmlns="http://www.w3.org/2000/svg" xmlns:xlink="http://www.w3.org/1999/xlink" width="500" zoomAndPan="magnify" viewBox="0 0 375 374.999991" height="500" preserveAspectRatio="xMidYMid meet" version="1.0"><defs><clipPath id="0e7b2bfa8a"><path d="M 88.164062 88.164062 L 286.914062 88.164062 L 286.914062 286.914062 L 88.164062 286.914062 Z M 88.164062 88.164062 " clip-rule="nonzero"/></clipPath></defs><g clip-path="url(#0e7b2bfa8a)"><path fill="#000000" d="M 286.101562 147.023438 C 285.597656 146.746094 284.984375 146.765625 284.5 147.070312 L 254.941406 165.617188 L 254.941406 90.027344 C 254.941406 89.15625 254.238281 88.449219 253.367188 88.449219 L 121.480469 88.164062 C 121.0625 88.164062 120.660156 88.332031 120.367188 88.625 C 120.070312 88.921875 119.902344 89.324219 119.902344 89.742188 L 119.902344 165.46875 L 90.578125 147.070312 C 90.09375 146.765625 89.480469 146.75 88.976562 147.023438 C 88.476562 147.300781 88.164062 147.832031 88.164062 148.40625 L 88.164062 216.46875 C 88.164062 217.066406 88.5 217.609375 89.035156 217.878906 L 121.226562 234.050781 L 121.210938 267.6875 C 121.210938 268.105469 121.375 268.507812 121.671875 268.800781 C 121.96875 269.097656 122.367188 269.265625 122.789062 269.265625 L 151.484375 269.265625 C 151.957031 270.53125 152.753906 271.671875 153.808594 272.554688 C 155.21875 273.738281 157.019531 274.390625 158.878906 274.390625 C 159.625 274.390625 160.351562 274.253906 161.058594 274.050781 C 161.199219 276.148438 162.167969 278.15625 163.867188 279.566406 C 165.292969 280.746094 167.085938 281.394531 168.910156 281.394531 C 170.125 281.394531 171.300781 281.113281 172.363281 280.59375 C 172.710938 282.316406 173.617188 283.914062 175.035156 285.085938 C 176.460938 286.265625 178.253906 286.914062 180.078125 286.914062 C 182.417969 286.914062 184.621094 285.886719 186.128906 284.097656 L 189.464844 280.121094 C 190.730469 281.136719 192.722656 282.285156 195.316406 282.285156 C 195.472656 282.285156 195.632812 282.28125 195.796875 282.273438 C 198.671875 282.113281 200.667969 280.628906 201.644531 279.710938 L 202.769531 278.570312 C 204.046875 277.265625 204.84375 275.601562 205.082031 273.851562 C 206.0625 274.21875 207.097656 274.40625 208.132812 274.40625 C 210.375 274.40625 212.609375 273.546875 214.265625 271.855469 L 215.394531 270.707031 C 215.828125 270.265625 216.183594 269.773438 216.5 269.261719 L 252.308594 269.261719 C 252.726562 269.261719 253.128906 269.097656 253.421875 268.800781 C 253.71875 268.503906 253.882812 268.101562 253.882812 267.683594 L 253.855469 234.050781 L 286.046875 217.878906 C 286.582031 217.609375 286.917969 217.0625 286.917969 216.46875 L 286.917969 148.40625 C 286.914062 147.832031 286.605469 147.300781 286.101562 147.023438 Z M 123.054688 91.324219 L 251.785156 91.601562 L 251.785156 167.597656 L 221.011719 186.914062 C 220.648438 187.140625 220.390625 187.507812 220.304688 187.925781 C 220.21875 188.34375 220.304688 188.78125 220.542969 189.136719 L 222.324219 191.757812 L 218.824219 194.332031 C 217.464844 192.714844 215.519531 191.59375 213.261719 191.175781 L 200.953125 188.984375 C 198.445312 188.542969 195.902344 188.527344 193.390625 188.933594 L 157.003906 194.882812 L 152.753906 191.761719 L 154.535156 189.136719 C 154.777344 188.78125 154.863281 188.347656 154.773438 187.925781 C 154.6875 187.507812 154.433594 187.144531 154.070312 186.914062 L 123.054688 167.449219 Z M 225.117188 251.335938 C 224.71875 249.523438 223.71875 247.859375 222.1875 246.628906 C 217.855469 243.148438 213.046875 239.207031 208.265625 235.285156 C 204.722656 232.378906 201.207031 229.496094 197.890625 226.808594 C 198.4375 226.828125 198.980469 226.851562 199.523438 226.851562 C 201.644531 226.851562 203.765625 226.679688 205.871094 226.339844 C 210.859375 225.527344 215.597656 223.78125 219.953125 221.148438 C 220.699219 220.699219 220.9375 219.726562 220.484375 218.980469 C 220.035156 218.238281 219.066406 217.996094 218.320312 218.449219 C 214.3125 220.871094 209.953125 222.480469 205.363281 223.226562 C 200.800781 223.964844 196.160156 223.832031 191.585938 222.832031 C 191.566406 222.824219 191.546875 222.824219 191.527344 222.816406 C 190.867188 222.601562 190.207031 222.4375 189.597656 222.34375 C 186.804688 221.851562 183.96875 222.234375 181.398438 223.445312 C 180.253906 223.984375 179.222656 224.4375 178.308594 224.835938 L 177.960938 224.988281 C 170.261719 228.28125 167.832031 228.21875 166.789062 228.171875 C 162.699219 228.078125 160.335938 227.300781 159.761719 225.851562 C 159.386719 224.914062 159.730469 223.519531 160.691406 222.121094 C 161.34375 221.160156 162.351562 220.292969 163.664062 219.550781 L 187.777344 206.226562 L 195.441406 205.53125 C 205.164062 208.792969 212.863281 207.457031 216.847656 205.089844 C 218.410156 204.164062 219.523438 203.023438 220.160156 201.742188 L 241.898438 233.074219 C 239.777344 236.136719 237.425781 239.128906 234.871094 241.980469 C 231.863281 245.324219 228.585938 248.453125 225.117188 251.335938 Z M 130.886719 230.847656 L 127.777344 228.558594 L 150.980469 194.371094 L 154.433594 196.910156 Z M 124.382812 233.566406 L 126.007812 231.167969 L 130.164062 234.230469 C 132.765625 237.589844 135.589844 240.914062 138.550781 244.101562 C 140.78125 246.519531 143.132812 248.878906 145.539062 251.152344 L 143.191406 253.957031 C 141.839844 255.570312 141.195312 257.605469 141.382812 259.695312 C 141.570312 261.789062 142.5625 263.6875 144.183594 265.039062 C 144.71875 265.484375 145.320312 265.824219 145.945312 266.109375 L 124.367188 266.109375 Z M 157.605469 256.085938 C 157.417969 256.492188 157.179688 256.867188 156.910156 257.195312 L 152.890625 262 C 152.628906 262.304688 152.40625 262.515625 152.195312 262.671875 C 152.136719 262.714844 152.082031 262.761719 152.03125 262.808594 C 150.332031 264.019531 147.824219 263.957031 146.199219 262.613281 C 145.230469 261.800781 144.636719 260.671875 144.523438 259.417969 C 144.414062 258.167969 144.800781 256.953125 145.609375 255.988281 L 148.835938 252.128906 C 148.839844 252.125 148.847656 252.121094 148.855469 252.117188 C 148.863281 252.109375 148.867188 252.09375 148.875 252.085938 L 149.644531 251.160156 C 150.550781 250.085938 151.875 249.46875 153.28125 249.46875 C 154.382812 249.46875 155.464844 249.859375 156.324219 250.570312 C 157.9375 251.917969 158.464844 254.195312 157.605469 256.085938 Z M 155.835938 270.136719 C 154.996094 269.429688 154.425781 268.460938 154.226562 267.390625 C 154.066406 266.539062 154.15625 265.679688 154.457031 264.882812 C 154.730469 264.648438 155 264.386719 155.292969 264.046875 L 159.335938 259.210938 C 159.675781 258.800781 159.964844 258.339844 160.226562 257.855469 C 161.894531 256.703125 164.359375 256.777344 165.960938 258.097656 C 167.519531 259.390625 168.070312 261.523438 167.320312 263.425781 C 167.148438 263.886719 166.894531 264.316406 166.550781 264.734375 L 162.535156 269.515625 C 162.359375 269.714844 162.1875 269.902344 161.992188 270.074219 C 160.285156 271.554688 157.542969 271.570312 155.835938 270.136719 Z M 165.878906 277.136719 C 164.394531 275.90625 163.835938 273.90625 164.421875 272.089844 C 164.589844 271.921875 164.757812 271.765625 164.929688 271.570312 L 168.972656 266.753906 C 169.421875 266.210938 169.761719 265.628906 170.039062 265.03125 C 171.707031 263.722656 174.320312 263.714844 175.996094 265.101562 C 177.4375 266.292969 178.027344 268.230469 177.5 270.042969 C 177.496094 270.058594 177.484375 270.066406 177.480469 270.078125 C 177.296875 270.679688 176.988281 271.25 176.597656 271.71875 L 172.828125 276.199219 C 172.816406 276.210938 172.816406 276.230469 172.804688 276.246094 L 172.546875 276.546875 C 170.9375 278.460938 167.84375 278.757812 165.878906 277.136719 Z M 183.714844 282.066406 C 182.105469 283.980469 179.015625 284.28125 177.046875 282.65625 C 175.652344 281.503906 175.066406 279.675781 175.492188 277.9375 L 179.019531 273.742188 C 179.589844 273.058594 180.015625 272.25 180.328125 271.40625 L 180.496094 271.210938 C 182.101562 269.296875 185.214844 269.011719 187.167969 270.621094 C 189.03125 272.164062 189.402344 274.925781 187.960938 276.996094 C 187.925781 277.054688 187.875 277.101562 187.769531 277.238281 Z M 212.011719 269.644531 C 210 271.707031 206.628906 271.804688 204.417969 269.804688 C 204.378906 269.769531 204.339844 269.730469 204.292969 269.699219 L 181.335938 248.511719 C 180.703125 247.925781 179.699219 247.960938 179.109375 248.605469 C 178.519531 249.242188 178.558594 250.242188 179.199219 250.832031 L 201.894531 271.765625 C 202.222656 273.40625 201.722656 275.136719 200.519531 276.359375 L 199.445312 277.449219 C 198.945312 277.917969 197.570312 279.015625 195.625 279.125 C 193.660156 279.214844 192.160156 278.285156 191.269531 277.53125 C 192.738281 274.363281 191.941406 270.476562 189.175781 268.191406 C 187.742188 267.007812 185.996094 266.378906 184.132812 266.378906 C 182.914062 266.378906 181.738281 266.660156 180.675781 267.171875 C 180.328125 265.441406 179.425781 263.84375 178.007812 262.671875 C 176.015625 261.023438 173.234375 260.574219 170.78125 261.238281 C 170.660156 259.121094 169.691406 257.089844 167.976562 255.667969 C 166.101562 254.117188 163.496094 253.617188 161.140625 254.125 C 161.121094 251.871094 160.152344 249.660156 158.339844 248.144531 C 156.910156 246.964844 155.113281 246.316406 153.28125 246.316406 C 151.121094 246.316406 149.082031 247.199219 147.589844 248.753906 C 145.277344 246.558594 143.015625 244.296875 140.871094 241.960938 C 138.175781 239.0625 135.625 236.050781 133.230469 233.007812 L 157.523438 198 L 193.898438 192.050781 C 196.058594 191.699219 198.25 191.714844 200.402344 192.09375 L 212.699219 194.285156 C 214.644531 194.640625 216.234375 195.742188 217.0625 197.304688 C 217.101562 197.378906 217.148438 197.449219 217.199219 197.519531 C 217.1875 197.503906 217.15625 197.464844 217.15625 197.464844 C 217.15625 197.464844 217.15625 197.464844 217.160156 197.464844 C 217.554688 198.292969 217.691406 198.992188 217.582031 199.617188 C 217.417969 200.601562 216.582031 201.582031 215.238281 202.382812 C 211.976562 204.316406 205.019531 205.496094 196.148438 202.441406 C 195.9375 202.367188 195.710938 202.339844 195.488281 202.359375 L 187.160156 203.117188 C 186.945312 203.136719 186.734375 203.203125 186.542969 203.308594 L 162.128906 216.800781 C 160.375 217.789062 159.015625 218.984375 158.085938 220.347656 C 156.511719 222.644531 156.054688 225.078125 156.832031 227.023438 C 158.464844 231.144531 164.460938 231.277344 166.707031 231.328125 C 166.835938 231.332031 166.96875 231.335938 167.105469 231.335938 C 169.171875 231.335938 172.324219 230.835938 179.21875 227.882812 L 179.578125 227.726562 C 180.511719 227.316406 181.570312 226.855469 182.746094 226.304688 C 184.707031 225.378906 186.863281 225.085938 189.03125 225.453125 C 189.550781 225.585938 190.128906 225.738281 190.78125 225.886719 C 191.90625 226.296875 192.933594 226.863281 193.824219 227.570312 C 197.710938 230.703125 201.980469 234.203125 206.269531 237.726562 C 211.058594 241.652344 215.875 245.605469 220.214844 249.089844 C 221.78125 250.351562 222.480469 252.332031 222.027344 254.277344 C 221.789062 255.375 221.199219 256.355469 220.222656 257.195312 C 219.082031 258.351562 217.164062 259.339844 215.855469 259.59375 C 215.597656 259.28125 215.335938 258.996094 215.066406 258.753906 L 193.171875 238.5625 C 192.53125 237.976562 191.535156 238.015625 190.941406 238.65625 C 190.351562 239.296875 190.390625 240.292969 191.035156 240.882812 L 212.945312 261.089844 C 213.242188 261.351562 213.519531 261.6875 213.796875 262.097656 C 214.753906 263.574219 214.890625 265.421875 214.15625 267.039062 C 213.914062 267.574219 213.570312 268.070312 213.144531 268.507812 Z M 217.671875 266.109375 C 217.855469 264.886719 217.765625 263.648438 217.402344 262.464844 C 219.304688 261.882812 221.21875 260.667969 222.367188 259.5 C 223.613281 258.4375 224.472656 257.070312 224.925781 255.550781 C 229.339844 252.101562 233.476562 248.25 237.21875 244.085938 C 240.046875 240.925781 242.648438 237.597656 244.964844 234.195312 L 249.070312 231.167969 L 250.699219 233.566406 L 250.726562 266.105469 L 217.671875 266.105469 Z M 283.761719 215.496094 L 252.800781 231.046875 L 224.070312 188.714844 L 283.761719 151.257812 Z M 283.761719 215.496094 " fill-opacity="1" fill-rule="nonzero"/></g><path fill="#000000" d="M 180.015625 113.796875 L 221.390625 113.796875 C 222.261719 113.796875 222.96875 113.089844 222.96875 112.21875 C 222.96875 111.347656 222.261719 110.640625 221.390625 110.640625 L 180.015625 110.640625 C 179.144531 110.640625 178.4375 111.347656 178.4375 112.21875 C 178.4375 113.089844 179.144531 113.796875 180.015625 113.796875 Z M 180.015625 113.796875 " fill-opacity="1" fill-rule="nonzero"/><path fill="#000000" d="M 174.367188 126.90625 L 230.792969 126.90625 C 231.664062 126.90625 232.367188 126.199219 232.367188 125.328125 C 232.367188 124.457031 231.664062 123.75 230.792969 123.75 L 174.367188 123.75 C 173.496094 123.75 172.792969 124.457031 172.792969 125.328125 C 172.792969 126.199219 173.496094 126.90625 174.367188 126.90625 Z M 174.367188 126.90625 " fill-opacity="1" fill-rule="nonzero"/><path fill="#000000" d="M 146.164062 149.980469 C 145.292969 149.980469 144.585938 150.6875 144.585938 151.558594 C 144.585938 152.429688 145.292969 153.136719 146.164062 153.136719 L 228.914062 153.136719 C 229.785156 153.136719 230.492188 152.429688 230.492188 151.558594 C 230.492188 150.6875 229.785156 149.980469 228.914062 149.980469 Z M 146.164062 149.980469 " fill-opacity="1" fill-rule="nonzero"/><path fill="#000000" d="M 230.492188 166.542969 C 230.492188 165.675781 229.785156 164.96875 228.914062 164.96875 L 142.394531 164.96875 C 141.523438 164.96875 140.816406 165.675781 140.816406 166.542969 C 140.816406 167.414062 141.523438 168.121094 142.394531 168.121094 L 228.914062 168.121094 C 229.785156 168.121094 230.492188 167.414062 230.492188 166.542969 Z M 230.492188 166.542969 " fill-opacity="1" fill-rule="nonzero"/><path fill="#000000" d="M 213.867188 178.074219 L 168.738281 178.074219 C 167.863281 178.074219 167.160156 178.78125 167.160156 179.652344 C 167.160156 180.523438 167.863281 181.230469 168.738281 181.230469 L 213.867188 181.230469 C 214.738281 181.230469 215.445312 180.523438 215.445312 179.652344 C 215.445312 178.78125 214.738281 178.074219 213.867188 178.074219 Z M 213.867188 178.074219 " fill-opacity="1" fill-rule="nonzero"/><path fill="#000000" d="M 142.535156 132.347656 L 144.632812 135.851562 C 145.363281 137.050781 146.640625 137.765625 148.046875 137.765625 C 148.054688 137.765625 148.058594 137.765625 148.0625 137.765625 C 149.46875 137.761719 150.738281 137.042969 151.464844 135.835938 L 153.535156 132.371094 C 153.726562 132.050781 154.101562 131.894531 154.460938 131.984375 L 158.402344 132.964844 C 159.777344 133.308594 161.195312 132.917969 162.195312 131.917969 C 163.1875 130.925781 163.574219 129.515625 163.230469 128.144531 L 162.238281 124.21875 C 162.152344 123.878906 162.3125 123.507812 162.628906 123.320312 L 166.105469 121.242188 C 167.324219 120.515625 168.046875 119.242188 168.046875 117.835938 C 168.046875 116.429688 167.320312 115.15625 166.105469 114.429688 L 162.609375 112.339844 C 162.300781 112.160156 162.152344 111.800781 162.238281 111.453125 L 163.230469 107.527344 C 163.574219 106.164062 163.1875 104.753906 162.195312 103.757812 C 161.195312 102.757812 159.78125 102.363281 158.398438 102.707031 L 154.460938 103.683594 C 154.101562 103.765625 153.726562 103.617188 153.539062 103.3125 L 151.457031 99.84375 C 150.738281 98.644531 149.464844 97.925781 148.0625 97.921875 C 148.058594 97.921875 148.054688 97.921875 148.046875 97.921875 C 146.640625 97.921875 145.363281 98.636719 144.625 99.84375 L 142.550781 103.304688 C 142.355469 103.617188 141.972656 103.773438 141.632812 103.6875 L 137.6875 102.707031 C 136.320312 102.363281 134.898438 102.753906 133.898438 103.757812 C 132.898438 104.757812 132.507812 106.164062 132.851562 107.527344 L 133.84375 111.445312 C 133.933594 111.800781 133.785156 112.160156 133.460938 112.351562 C 132.3125 113.042969 131.144531 113.734375 129.972656 114.433594 C 128.769531 115.160156 128.050781 116.429688 128.050781 117.835938 C 128.050781 119.242188 128.769531 120.511719 129.980469 121.242188 C 131.144531 121.929688 132.3125 122.625 133.460938 123.316406 C 133.769531 123.503906 133.933594 123.875 133.847656 124.214844 L 132.851562 128.144531 C 132.511719 129.511719 132.902344 130.921875 133.898438 131.917969 C 134.898438 132.914062 136.308594 133.3125 137.683594 132.960938 L 141.621094 131.984375 C 141.976562 131.898438 142.359375 132.058594 142.535156 132.347656 Z M 136.914062 129.902344 C 136.503906 130.007812 136.222656 129.785156 136.125 129.683594 C 136.003906 129.5625 135.8125 129.300781 135.910156 128.917969 L 136.902344 124.984375 C 137.328125 123.285156 136.601562 121.53125 135.085938 120.617188 C 133.933594 119.921875 132.761719 119.226562 131.597656 118.535156 C 131.242188 118.320312 131.203125 117.976562 131.203125 117.835938 C 131.203125 117.699219 131.242188 117.351562 131.589844 117.144531 C 132.761719 116.445312 133.929688 115.75 135.070312 115.066406 C 136.59375 114.171875 137.332031 112.414062 136.902344 110.683594 L 135.910156 106.757812 C 135.8125 106.363281 136.027344 106.089844 136.125 105.992188 C 136.226562 105.890625 136.503906 105.671875 136.917969 105.769531 L 140.867188 106.75 C 142.566406 107.167969 144.324219 106.449219 145.242188 104.945312 L 147.320312 101.484375 C 147.542969 101.121094 147.898438 101.078125 148.046875 101.078125 C 148.144531 101.105469 148.539062 101.113281 148.753906 101.472656 L 150.84375 104.957031 C 151.761719 106.449219 153.519531 107.167969 155.222656 106.746094 L 159.164062 105.769531 C 159.582031 105.667969 159.855469 105.890625 159.957031 105.992188 C 160.054688 106.089844 160.269531 106.359375 160.171875 106.757812 L 159.175781 110.695312 C 158.75 112.417969 159.488281 114.175781 161.003906 115.0625 L 164.488281 117.144531 C 164.839844 117.351562 164.890625 117.667969 164.890625 117.839844 C 164.890625 118.007812 164.839844 118.324219 164.492188 118.53125 L 161.003906 120.617188 C 161 120.617188 161 120.621094 160.996094 120.621094 C 159.480469 121.535156 158.75 123.289062 159.175781 124.992188 L 160.171875 128.914062 C 160.269531 129.308594 160.082031 129.570312 159.960938 129.6875 C 159.859375 129.789062 159.578125 130.011719 159.160156 129.902344 L 155.214844 128.925781 C 153.515625 128.5 151.761719 129.226562 150.832031 130.738281 L 148.753906 134.21875 C 148.539062 134.574219 148.191406 134.613281 148.050781 134.613281 C 147.949219 134.644531 147.546875 134.574219 147.332031 134.222656 L 145.238281 130.71875 C 144.496094 129.507812 143.199219 128.808594 141.832031 128.808594 C 141.511719 128.808594 141.1875 128.84375 140.863281 128.925781 Z M 136.914062 129.902344 " fill-opacity="1" fill-rule="nonzero"/></svg>