<svg xmlns="http://www.w3.org/2000/svg" xmlns:xlink="http://www.w3.org/1999/xlink" width="500" zoomAndPan="magnify" viewBox="0 0 375 374.999991" height="500" preserveAspectRatio="xMidYMid meet" version="1.0"><defs><clipPath id="6ea4ebf25e"><path d="M 75 123.796875 L 300 123.796875 L 300 251 L 75 251 Z M 75 123.796875 " clip-rule="nonzero"/></clipPath></defs><g clip-path="url(#6ea4ebf25e)"><path fill="#040606" d="M 291.867188 191.929688 C 291.824219 191.960938 291.78125 191.976562 291.722656 191.988281 L 286.613281 193.214844 C 285.167969 193.566406 284.074219 194.734375 283.8125 196.179688 C 282.585938 202.914062 279.957031 209.210938 276.046875 214.875 C 275.199219 216.101562 275.15625 217.710938 275.929688 218.980469 L 278.671875 223.40625 C 278.703125 223.464844 278.746094 223.550781 278.777344 223.625 C 277.738281 224.882812 276.71875 225.992188 275.652344 227.042969 C 274.660156 228.066406 273.550781 229.074219 272.28125 230.082031 C 272.238281 230.066406 272.191406 230.039062 272.148438 230.007812 L 267.667969 227.246094 C 266.398438 226.472656 264.792969 226.515625 263.566406 227.363281 C 257.90625 231.277344 251.613281 233.90625 244.886719 235.132812 C 243.441406 235.398438 242.273438 236.492188 241.921875 237.9375 L 240.699219 243.019531 C 240.683594 243.09375 240.667969 243.152344 240.640625 243.210938 C 237.179688 243.53125 234.554688 243.519531 231.503906 243.195312 C 231.472656 243.152344 231.460938 243.109375 231.445312 243.050781 L 230.21875 237.9375 C 229.867188 236.492188 228.699219 235.398438 227.257812 235.132812 C 218.734375 233.570312 210.75 229.703125 204.125 223.886719 L 209.421875 218.644531 C 217.914062 225.902344 228.714844 229.335938 239.925781 228.3125 C 258.75 226.574219 274.265625 211.738281 276.789062 193.027344 C 278.789062 178.21875 272.9375 163.933594 261.160156 154.820312 C 249.339844 145.660156 233.664062 143.734375 219.242188 149.632812 C 204.679688 155.59375 195.164062 170.578125 194.972656 187.796875 C 194.957031 189.15625 194.871094 190.542969 194.722656 191.929688 C 194.679688 191.960938 194.636719 191.976562 194.578125 191.988281 L 189.46875 193.214844 C 188.039062 193.566406 186.929688 194.722656 186.667969 196.167969 C 186.097656 199.21875 185.238281 202.214844 184.027344 205.265625 C 182.683594 208.640625 180.960938 211.867188 178.890625 214.890625 C 178.042969 216.117188 178.011719 217.710938 178.785156 218.980469 L 181.53125 223.40625 C 181.558594 223.464844 181.605469 223.550781 181.632812 223.625 C 180.597656 224.882812 179.574219 225.992188 178.507812 227.042969 C 177.515625 228.066406 176.40625 229.074219 175.136719 230.082031 C 175.09375 230.066406 175.050781 230.039062 175.007812 230.007812 L 170.527344 227.246094 C 169.242188 226.472656 167.652344 226.515625 166.425781 227.363281 C 160.820312 231.234375 154.53125 233.847656 147.730469 235.132812 C 146.285156 235.398438 145.132812 236.507812 144.78125 237.9375 L 143.554688 243.019531 C 143.539062 243.09375 143.527344 243.152344 143.496094 243.210938 C 140.039062 243.53125 137.410156 243.519531 134.359375 243.195312 C 134.332031 243.152344 134.316406 243.109375 134.300781 243.050781 L 133.078125 237.9375 C 132.726562 236.507812 131.574219 235.398438 130.128906 235.132812 C 123.328125 233.847656 117.035156 231.234375 111.433594 227.363281 C 110.207031 226.503906 108.601562 226.472656 107.332031 227.246094 L 102.910156 229.992188 C 102.851562 230.023438 102.761719 230.066406 102.691406 230.09375 C 101.433594 229.058594 100.324219 228.035156 99.273438 226.96875 C 98.253906 225.976562 97.246094 224.867188 96.238281 223.597656 C 96.253906 223.550781 96.269531 223.507812 96.3125 223.464844 L 99.070312 218.980469 C 99.84375 217.710938 99.800781 216.101562 98.953125 214.875 C 95.027344 209.210938 92.414062 202.914062 91.1875 196.179688 C 90.925781 194.734375 89.832031 193.566406 88.402344 193.214844 L 83.308594 191.988281 C 83.234375 191.976562 83.175781 191.960938 83.117188 191.929688 C 82.957031 190.25 82.886719 188.777344 82.886719 187.359375 C 82.886719 185.871094 82.972656 184.351562 83.132812 182.789062 C 83.175781 182.757812 83.21875 182.746094 83.277344 182.730469 L 88.402344 181.503906 C 89.832031 181.152344 90.925781 179.984375 91.1875 178.539062 C 92.414062 171.804688 95.027344 165.511719 98.953125 159.84375 C 99.800781 158.617188 99.84375 157.007812 99.070312 155.738281 L 96.339844 151.3125 C 96.296875 151.253906 96.253906 151.167969 96.222656 151.09375 C 97.261719 149.839844 98.28125 148.726562 99.347656 147.675781 C 100.355469 146.65625 101.449219 145.648438 102.71875 144.640625 C 102.761719 144.652344 102.808594 144.683594 102.851562 144.710938 L 107.332031 147.472656 C 108.617188 148.246094 110.207031 148.21875 111.433594 147.355469 C 117.09375 143.441406 123.386719 140.8125 130.113281 139.585938 C 131.558594 139.324219 132.726562 138.226562 133.078125 136.78125 L 134.300781 131.699219 C 134.316406 131.625 134.332031 131.566406 134.359375 131.507812 C 137.820312 131.1875 140.445312 131.203125 143.496094 131.523438 C 143.527344 131.566406 143.539062 131.609375 143.554688 131.667969 L 144.78125 136.78125 C 145.132812 138.226562 146.300781 139.324219 147.742188 139.585938 C 156.265625 141.148438 164.25 145.019531 170.875 150.832031 L 165.578125 156.074219 C 157.085938 148.816406 146.285156 145.414062 135.074219 146.40625 C 116.234375 148.144531 100.734375 162.984375 98.210938 181.691406 C 96.222656 196.503906 102.0625 210.789062 113.839844 219.902344 C 125.660156 229.058594 141.320312 230.988281 155.757812 225.085938 C 170.308594 219.125 179.835938 204.140625 180.027344 186.921875 C 180.042969 185.5625 180.128906 184.175781 180.277344 182.789062 C 180.320312 182.757812 180.363281 182.746094 180.421875 182.730469 L 185.53125 181.503906 C 186.960938 181.152344 188.070312 180 188.332031 178.554688 C 188.902344 175.5 189.761719 172.507812 190.972656 169.453125 C 192.316406 166.078125 194.039062 162.851562 196.109375 159.828125 C 196.957031 158.601562 196.988281 157.007812 196.214844 155.738281 L 193.46875 151.3125 C 193.441406 151.253906 193.394531 151.167969 193.367188 151.09375 C 194.402344 149.839844 195.425781 148.726562 196.492188 147.675781 C 197.484375 146.65625 198.59375 145.648438 199.863281 144.640625 C 199.90625 144.652344 199.949219 144.683594 199.992188 144.710938 L 204.472656 147.472656 C 205.757812 148.246094 207.347656 148.21875 208.574219 147.355469 C 214.179688 143.484375 220.46875 140.871094 227.269531 139.585938 C 228.714844 139.324219 229.867188 138.210938 230.21875 136.78125 L 231.445312 131.699219 C 231.460938 131.625 231.472656 131.566406 231.503906 131.507812 C 234.960938 131.1875 237.589844 131.203125 240.640625 131.523438 C 240.667969 131.566406 240.683594 131.609375 240.699219 131.667969 L 241.921875 136.78125 C 242.273438 138.210938 243.425781 139.324219 244.871094 139.585938 C 251.671875 140.871094 257.964844 143.484375 263.566406 147.355469 C 264.792969 148.203125 266.382812 148.246094 267.667969 147.472656 L 272.089844 144.726562 C 272.148438 144.699219 272.238281 144.652344 272.308594 144.625 C 273.566406 145.660156 274.675781 146.683594 275.726562 147.75 C 276.746094 148.742188 277.753906 149.851562 278.761719 151.125 C 278.746094 151.167969 278.71875 151.210938 278.6875 151.253906 L 275.929688 155.738281 C 275.15625 157.007812 275.199219 158.617188 276.046875 159.84375 C 279.957031 165.511719 282.585938 171.804688 283.8125 178.539062 C 284.074219 179.984375 285.167969 181.152344 286.613281 181.503906 L 291.691406 182.730469 C 291.765625 182.746094 291.824219 182.757812 291.882812 182.789062 C 292.042969 184.46875 292.113281 185.941406 292.113281 187.359375 C 292.113281 188.851562 292.027344 190.367188 291.867188 191.929688 Z M 298.800781 179.503906 C 297.761719 177.515625 295.835938 176.054688 293.472656 175.457031 L 290.65625 174.785156 C 289.269531 168.707031 286.890625 162.953125 283.546875 157.636719 L 285.109375 155.097656 C 286.304688 153.050781 286.613281 150.6875 285.972656 148.597656 C 285.839844 148.171875 285.636719 147.777344 285.371094 147.429688 C 283.898438 145.515625 282.4375 143.863281 281.007812 142.460938 C 279.664062 141.089844 278.175781 139.730469 276.441406 138.34375 C 275.988281 137.875 275.402344 137.527344 274.734375 137.351562 C 272.585938 136.765625 270.28125 137.101562 268.222656 138.34375 L 265.773438 139.847656 C 260.503906 136.546875 254.765625 134.167969 248.636719 132.734375 L 247.9375 129.828125 C 247.339844 127.566406 245.90625 125.679688 244.011719 124.660156 C 243.601562 124.441406 243.179688 124.308594 242.726562 124.234375 C 238.40625 123.679688 234.714844 123.636719 229.707031 124.175781 C 229.183594 124.207031 228.6875 124.351562 228.21875 124.585938 C 226.234375 125.621094 224.773438 127.550781 224.175781 129.917969 L 223.503906 132.734375 C 217.375 134.167969 211.640625 136.546875 206.371094 139.847656 L 203.832031 138.285156 C 201.789062 137.085938 199.425781 136.78125 197.335938 137.421875 C 196.914062 137.554688 196.519531 137.757812 196.167969 138.023438 C 194.257812 139.496094 192.609375 140.957031 191.207031 142.390625 C 189.835938 143.734375 188.476562 145.222656 187.089844 146.960938 C 186.625 147.414062 186.273438 148 186.097656 148.671875 C 185.515625 150.832031 185.851562 153.125 187.089844 155.183594 L 188.609375 157.652344 C 186.8125 160.53125 185.265625 163.554688 184.027344 166.691406 C 182.976562 169.378906 182.113281 172.082031 181.488281 174.785156 L 178.582031 175.484375 C 176.320312 176.085938 174.4375 177.515625 173.417969 179.414062 C 173.195312 179.824219 173.066406 180.246094 172.992188 180.699219 C 172.730469 182.757812 172.585938 184.820312 172.554688 186.835938 C 172.410156 201.046875 164.703125 213.34375 152.925781 218.164062 C 140.8125 223.128906 128.230469 221.59375 118.410156 213.984375 C 108.761719 206.523438 103.972656 194.824219 105.625 182.699219 C 107.679688 167.394531 120.363281 155.273438 135.761719 153.855469 C 144.914062 153.007812 153.773438 155.828125 160.71875 161.757812 C 163.621094 164.253906 167.929688 164.109375 170.703125 161.40625 L 176.074219 156.207031 C 177.574219 154.761719 178.394531 152.730469 178.347656 150.640625 C 178.289062 148.554688 177.355469 146.550781 175.765625 145.164062 C 168.773438 139.046875 160.425781 134.78125 151.496094 132.734375 L 150.792969 129.828125 C 150.195312 127.566406 148.765625 125.679688 146.867188 124.660156 C 146.460938 124.441406 146.035156 124.308594 145.582031 124.234375 C 141.265625 123.679688 137.570312 123.636719 132.566406 124.175781 C 132.039062 124.207031 131.542969 124.351562 131.078125 124.585938 C 129.09375 125.621094 127.632812 127.550781 127.035156 129.917969 L 126.363281 132.734375 C 120.292969 134.121094 114.539062 136.503906 109.226562 139.847656 L 106.703125 138.285156 C 104.644531 137.085938 102.28125 136.78125 100.195312 137.421875 C 99.769531 137.554688 99.375 137.757812 99.027344 138.023438 C 97.113281 139.496094 95.464844 140.957031 94.066406 142.390625 C 92.691406 143.734375 91.335938 145.222656 89.949219 146.960938 C 89.480469 147.414062 89.132812 148 88.957031 148.671875 C 88.371094 150.832031 88.722656 153.125 89.933594 155.183594 L 91.453125 157.636719 C 88.109375 162.953125 85.730469 168.707031 84.328125 174.785156 L 81.441406 175.484375 C 79.179688 176.085938 77.296875 177.515625 76.273438 179.414062 C 76.054688 179.824219 75.921875 180.246094 75.863281 180.699219 C 75.558594 182.964844 75.414062 185.199219 75.414062 187.359375 C 75.414062 189.316406 75.527344 191.347656 75.792969 193.726562 C 75.820312 194.253906 75.96875 194.75 76.199219 195.21875 C 77.238281 197.203125 79.164062 198.664062 81.527344 199.261719 L 84.328125 199.933594 C 85.730469 206.011719 88.109375 211.765625 91.453125 217.082031 L 89.890625 219.625 C 88.695312 221.667969 88.386719 224.035156 89.027344 226.121094 C 89.160156 226.546875 89.363281 226.941406 89.628906 227.292969 C 91.101562 229.203125 92.546875 230.855469 93.992188 232.257812 C 95.335938 233.628906 96.824219 234.988281 98.558594 236.375 C 99.011719 236.84375 99.597656 237.195312 100.265625 237.367188 C 102.414062 237.953125 104.71875 237.617188 106.777344 236.375 L 109.226562 234.871094 C 114.496094 238.171875 120.234375 240.554688 126.363281 241.984375 L 127.0625 244.890625 C 127.660156 247.15625 129.09375 249.039062 130.988281 250.0625 C 131.398438 250.28125 131.820312 250.410156 132.273438 250.484375 C 136.578125 251.039062 140.285156 251.082031 145.292969 250.542969 C 145.816406 250.515625 146.3125 250.367188 146.78125 250.132812 C 148.765625 249.097656 150.226562 247.167969 150.824219 244.804688 L 151.496094 241.984375 C 157.625 240.554688 163.359375 238.171875 168.628906 234.871094 L 171.167969 236.433594 C 173.210938 237.632812 175.589844 237.9375 177.664062 237.296875 C 178.085938 237.164062 178.480469 236.960938 178.832031 236.695312 C 180.742188 235.222656 182.390625 233.761719 183.792969 232.332031 C 185.164062 230.988281 186.523438 229.496094 187.910156 227.757812 C 188.375 227.304688 188.726562 226.722656 188.902344 226.050781 C 189.484375 223.886719 189.148438 221.59375 187.910156 219.535156 L 186.390625 217.066406 C 188.1875 214.191406 189.734375 211.167969 190.972656 208.027344 C 192.023438 205.339844 192.886719 202.636719 193.511719 199.933594 L 196.417969 199.234375 C 198.679688 198.636719 200.5625 197.203125 201.582031 195.304688 C 201.804688 194.894531 201.933594 194.472656 202.007812 194.019531 C 202.269531 191.960938 202.414062 189.902344 202.445312 187.886719 C 202.589844 173.675781 210.296875 161.375 222.074219 156.558594 C 234.175781 151.589844 246.753906 153.125 256.589844 160.734375 C 266.238281 168.199219 271.011719 179.898438 269.375 192.019531 C 267.320312 207.324219 254.636719 219.449219 239.238281 220.863281 C 230.074219 221.710938 221.226562 218.894531 214.28125 212.964844 C 211.363281 210.453125 207.070312 210.613281 204.296875 213.3125 L 198.925781 218.511719 C 197.425781 219.960938 196.605469 221.988281 196.652344 224.078125 C 196.710938 226.167969 197.644531 228.167969 199.234375 229.554688 C 206.226562 235.675781 214.574219 239.941406 223.503906 241.984375 L 224.207031 244.890625 C 224.804688 247.15625 226.234375 249.039062 228.132812 250.0625 C 228.539062 250.28125 228.964844 250.410156 229.417969 250.484375 C 231.679688 250.777344 233.910156 250.921875 236.070312 250.921875 C 238.027344 250.921875 240.054688 250.804688 242.433594 250.542969 C 242.960938 250.515625 243.457031 250.367188 243.921875 250.132812 C 245.90625 249.097656 247.367188 247.167969 247.964844 244.804688 L 248.636719 241.984375 C 254.707031 240.597656 260.460938 238.214844 265.773438 234.871094 L 268.3125 236.433594 C 270.355469 237.632812 272.71875 237.9375 274.804688 237.296875 C 275.230469 237.164062 275.621094 236.960938 275.972656 236.695312 C 277.886719 235.222656 279.535156 233.761719 280.933594 232.332031 C 282.308594 230.988281 283.664062 229.496094 285.050781 227.757812 C 285.519531 227.304688 285.867188 226.722656 286.042969 226.050781 C 286.628906 223.886719 286.292969 221.59375 285.050781 219.535156 L 283.546875 217.082031 C 286.890625 211.765625 289.269531 206.011719 290.65625 199.933594 L 293.558594 199.234375 C 295.820312 198.636719 297.703125 197.203125 298.726562 195.304688 C 298.945312 194.894531 299.078125 194.472656 299.148438 194.019531 C 299.441406 191.757812 299.585938 189.523438 299.585938 187.359375 C 299.585938 185.402344 299.472656 183.371094 299.207031 180.992188 C 299.179688 180.464844 299.03125 179.96875 298.800781 179.503906 " fill-opacity="1" fill-rule="nonzero"/></g><path fill="#040606" d="M 236.070312 172.402344 C 244.316406 172.402344 251.015625 179.109375 251.015625 187.359375 C 251.015625 195.613281 244.316406 202.316406 236.070312 202.316406 C 227.824219 202.316406 221.125 195.613281 221.125 187.359375 C 221.125 179.109375 227.824219 172.402344 236.070312 172.402344 Z M 236.070312 209.792969 C 248.433594 209.792969 258.488281 199.730469 258.488281 187.359375 C 258.488281 174.988281 248.433594 164.925781 236.070312 164.925781 C 223.710938 164.925781 213.652344 174.988281 213.652344 187.359375 C 213.652344 199.730469 223.710938 209.792969 236.070312 209.792969 " fill-opacity="1" fill-rule="nonzero"/><path fill="#040606" d="M 138.929688 202.316406 C 130.683594 202.316406 123.984375 195.613281 123.984375 187.359375 C 123.984375 179.109375 130.683594 172.402344 138.929688 172.402344 C 147.175781 172.402344 153.875 179.109375 153.875 187.359375 C 153.875 195.613281 147.175781 202.316406 138.929688 202.316406 Z M 138.929688 164.925781 C 126.566406 164.925781 116.511719 174.988281 116.511719 187.359375 C 116.511719 199.730469 126.566406 209.792969 138.929688 209.792969 C 151.289062 209.792969 161.347656 199.730469 161.347656 187.359375 C 161.347656 174.988281 151.289062 164.925781 138.929688 164.925781 " fill-opacity="1" fill-rule="nonzero"/></svg>