<svg xmlns="http://www.w3.org/2000/svg" xmlns:xlink="http://www.w3.org/1999/xlink" width="500" zoomAndPan="magnify" viewBox="0 0 375 374.999991" height="500" preserveAspectRatio="xMidYMid meet" version="1.0"><defs><clipPath id="0816e11a8d"><path d="M 93.480469 104.644531 L 281.730469 104.644531 L 281.730469 270.394531 L 93.480469 270.394531 Z M 93.480469 104.644531 " clip-rule="nonzero"/></clipPath><clipPath id="e8c348eab9"><path d="M 93.480469 127 L 281.730469 127 L 281.730469 135 L 93.480469 135 Z M 93.480469 127 " clip-rule="nonzero"/></clipPath></defs><g clip-path="url(#0816e11a8d)"><path fill="#000000" d="M 277.933594 270.367188 L 97.097656 270.367188 C 96.617188 270.367188 96.15625 270.273438 95.710938 270.089844 C 95.269531 269.90625 94.878906 269.644531 94.539062 269.308594 C 94.199219 268.96875 93.9375 268.578125 93.753906 268.136719 C 93.570312 267.691406 93.480469 267.230469 93.480469 266.753906 L 93.480469 108.308594 C 93.480469 107.832031 93.570312 107.371094 93.753906 106.925781 C 93.9375 106.484375 94.199219 106.09375 94.539062 105.753906 C 94.878906 105.414062 95.269531 105.15625 95.710938 104.972656 C 96.15625 104.789062 96.617188 104.695312 97.097656 104.695312 L 277.933594 104.695312 C 278.410156 104.695312 278.875 104.789062 279.316406 104.972656 C 279.757812 105.15625 280.152344 105.414062 280.488281 105.753906 C 280.828125 106.09375 281.089844 106.484375 281.273438 106.925781 C 281.457031 107.371094 281.550781 107.832031 281.550781 108.308594 L 281.550781 266.753906 C 281.550781 267.230469 281.457031 267.691406 281.273438 268.136719 C 281.089844 268.578125 280.828125 268.96875 280.488281 269.308594 C 280.152344 269.644531 279.757812 269.90625 279.316406 270.089844 C 278.875 270.273438 278.410156 270.367188 277.933594 270.367188 Z M 100.714844 263.136719 L 274.316406 263.136719 L 274.316406 111.921875 L 100.714844 111.921875 Z M 100.714844 263.136719 " fill-opacity="1" fill-rule="nonzero"/></g><g clip-path="url(#e8c348eab9)"><path fill="#000000" d="M 277.933594 134.980469 L 97.097656 134.980469 C 96.617188 134.980469 96.15625 134.890625 95.710938 134.707031 C 95.269531 134.523438 94.878906 134.261719 94.539062 133.921875 C 94.199219 133.585938 93.9375 133.191406 93.753906 132.75 C 93.570312 132.308594 93.480469 131.847656 93.480469 131.367188 C 93.480469 130.886719 93.570312 130.425781 93.753906 129.984375 C 93.9375 129.542969 94.199219 129.152344 94.539062 128.8125 C 94.878906 128.472656 95.269531 128.210938 95.710938 128.027344 C 96.15625 127.84375 96.617188 127.753906 97.097656 127.753906 L 277.933594 127.753906 C 278.410156 127.753906 278.875 127.84375 279.316406 128.027344 C 279.757812 128.210938 280.152344 128.472656 280.488281 128.8125 C 280.828125 129.152344 281.089844 129.542969 281.273438 129.984375 C 281.457031 130.425781 281.550781 130.886719 281.550781 131.367188 C 281.550781 131.847656 281.457031 132.308594 281.273438 132.75 C 281.089844 133.191406 280.828125 133.585938 280.488281 133.921875 C 280.152344 134.261719 279.757812 134.523438 279.316406 134.707031 C 278.875 134.890625 278.410156 134.980469 277.933594 134.980469 Z M 277.933594 134.980469 " fill-opacity="1" fill-rule="nonzero"/></g><path fill="#000000" d="M 231.925781 123.453125 L 230.25 123.453125 C 229.769531 123.453125 229.308594 123.359375 228.867188 123.175781 C 228.421875 122.992188 228.03125 122.730469 227.691406 122.394531 C 227.355469 122.054688 227.09375 121.664062 226.910156 121.21875 C 226.726562 120.777344 226.632812 120.316406 226.632812 119.835938 C 226.632812 119.359375 226.726562 118.898438 226.910156 118.453125 C 227.09375 118.011719 227.355469 117.621094 227.691406 117.28125 C 228.03125 116.945312 228.421875 116.683594 228.867188 116.5 C 229.308594 116.316406 229.769531 116.222656 230.25 116.222656 L 231.925781 116.222656 C 232.40625 116.222656 232.867188 116.316406 233.308594 116.5 C 233.753906 116.683594 234.144531 116.945312 234.484375 117.28125 C 234.820312 117.621094 235.082031 118.011719 235.265625 118.453125 C 235.449219 118.898438 235.542969 119.359375 235.542969 119.835938 C 235.542969 120.316406 235.449219 120.777344 235.265625 121.21875 C 235.082031 121.664062 234.820312 122.054688 234.484375 122.394531 C 234.144531 122.730469 233.753906 122.992188 233.308594 123.175781 C 232.867188 123.359375 232.40625 123.453125 231.925781 123.453125 Z M 231.925781 123.453125 " fill-opacity="1" fill-rule="nonzero"/><path fill="#000000" d="M 246.152344 123.453125 L 244.476562 123.453125 C 244 123.453125 243.535156 123.359375 243.09375 123.175781 C 242.652344 122.992188 242.257812 122.730469 241.921875 122.394531 C 241.582031 122.054688 241.320312 121.664062 241.136719 121.21875 C 240.953125 120.777344 240.859375 120.316406 240.859375 119.835938 C 240.859375 119.359375 240.953125 118.898438 241.136719 118.453125 C 241.320312 118.011719 241.582031 117.621094 241.921875 117.28125 C 242.257812 116.945312 242.652344 116.683594 243.09375 116.5 C 243.535156 116.316406 244 116.222656 244.476562 116.222656 L 246.152344 116.222656 C 246.632812 116.222656 247.09375 116.316406 247.535156 116.5 C 247.980469 116.683594 248.371094 116.945312 248.710938 117.28125 C 249.050781 117.621094 249.3125 118.011719 249.492188 118.453125 C 249.675781 118.898438 249.769531 119.359375 249.769531 119.835938 C 249.769531 120.316406 249.675781 120.777344 249.492188 121.21875 C 249.3125 121.664062 249.050781 122.054688 248.710938 122.394531 C 248.371094 122.730469 247.980469 122.992188 247.535156 123.175781 C 247.09375 123.359375 246.632812 123.453125 246.152344 123.453125 Z M 246.152344 123.453125 " fill-opacity="1" fill-rule="nonzero"/><path fill="#000000" d="M 260.378906 123.453125 L 258.703125 123.453125 C 258.226562 123.453125 257.765625 123.359375 257.320312 123.175781 C 256.878906 122.992188 256.488281 122.730469 256.148438 122.394531 C 255.808594 122.054688 255.546875 121.664062 255.363281 121.21875 C 255.179688 120.777344 255.089844 120.316406 255.089844 119.835938 C 255.089844 119.359375 255.179688 118.898438 255.363281 118.453125 C 255.546875 118.011719 255.808594 117.621094 256.148438 117.28125 C 256.488281 116.945312 256.878906 116.683594 257.320312 116.5 C 257.765625 116.316406 258.226562 116.222656 258.703125 116.222656 L 260.378906 116.222656 C 260.859375 116.222656 261.320312 116.316406 261.765625 116.5 C 262.207031 116.683594 262.597656 116.945312 262.9375 117.28125 C 263.277344 117.621094 263.539062 118.011719 263.722656 118.453125 C 263.90625 118.898438 263.996094 119.359375 263.996094 119.835938 C 263.996094 120.316406 263.90625 120.777344 263.722656 121.21875 C 263.539062 121.664062 263.277344 122.054688 262.9375 122.394531 C 262.597656 122.730469 262.207031 122.992188 261.765625 123.175781 C 261.320312 123.359375 260.859375 123.453125 260.378906 123.453125 Z M 260.378906 123.453125 " fill-opacity="1" fill-rule="nonzero"/><path fill="#000000" d="M 155.4375 241.882812 L 142.046875 241.882812 C 141.789062 241.882812 141.535156 241.855469 141.285156 241.800781 C 141.035156 241.746094 140.792969 241.667969 140.558594 241.5625 C 140.324219 241.457031 140.101562 241.328125 139.898438 241.175781 C 139.691406 241.023438 139.503906 240.851562 139.332031 240.65625 C 139.164062 240.464844 139.015625 240.257812 138.890625 240.035156 C 138.765625 239.808594 138.664062 239.574219 138.585938 239.332031 C 138.511719 239.085938 138.464844 238.835938 138.441406 238.582031 C 138.417969 238.324219 138.425781 238.070312 138.457031 237.816406 L 139.046875 233.074219 C 136.417969 232.328125 133.914062 231.289062 131.527344 229.957031 L 128.589844 233.738281 C 128.433594 233.9375 128.253906 234.121094 128.058594 234.285156 C 127.863281 234.453125 127.648438 234.59375 127.421875 234.714844 C 127.195312 234.832031 126.960938 234.925781 126.714844 234.996094 C 126.464844 235.066406 126.214844 235.109375 125.960938 235.125 C 125.703125 235.140625 125.449219 235.128906 125.195312 235.089844 C 124.941406 235.050781 124.695312 234.988281 124.457031 234.898438 C 124.214844 234.808594 123.988281 234.691406 123.773438 234.554688 C 123.558594 234.414062 123.359375 234.253906 123.175781 234.074219 L 113.707031 224.609375 C 113.527344 224.429688 113.367188 224.230469 113.226562 224.015625 C 113.089844 223.800781 112.972656 223.570312 112.882812 223.332031 C 112.792969 223.09375 112.730469 222.84375 112.691406 222.59375 C 112.652344 222.339844 112.640625 222.082031 112.65625 221.828125 C 112.671875 221.574219 112.714844 221.320312 112.785156 221.074219 C 112.855469 220.828125 112.949219 220.589844 113.070312 220.363281 C 113.191406 220.136719 113.332031 219.925781 113.5 219.730469 C 113.664062 219.535156 113.847656 219.359375 114.050781 219.199219 L 117.832031 216.265625 C 116.496094 213.882812 115.457031 211.375 114.710938 208.746094 L 109.964844 209.339844 C 109.710938 209.371094 109.457031 209.375 109.199219 209.355469 C 108.945312 209.332031 108.695312 209.285156 108.449219 209.207031 C 108.203125 209.132812 107.96875 209.03125 107.746094 208.90625 C 107.523438 208.78125 107.3125 208.632812 107.121094 208.464844 C 106.929688 208.296875 106.757812 208.109375 106.605469 207.902344 C 106.453125 207.695312 106.324219 207.476562 106.21875 207.242188 C 106.113281 207.007812 106.03125 206.765625 105.976562 206.515625 C 105.921875 206.265625 105.898438 206.011719 105.898438 205.753906 L 105.898438 192.367188 C 105.898438 192.113281 105.921875 191.859375 105.976562 191.609375 C 106.03125 191.359375 106.113281 191.117188 106.21875 190.882812 C 106.324219 190.648438 106.453125 190.429688 106.605469 190.222656 C 106.757812 190.015625 106.929688 189.828125 107.121094 189.660156 C 107.3125 189.488281 107.523438 189.34375 107.746094 189.21875 C 107.96875 189.09375 108.203125 188.992188 108.449219 188.917969 C 108.695312 188.839844 108.945312 188.792969 109.199219 188.769531 C 109.457031 188.746094 109.710938 188.753906 109.964844 188.785156 L 114.710938 189.375 C 115.457031 186.75 116.496094 184.242188 117.832031 181.859375 L 114.050781 178.921875 C 113.847656 178.765625 113.664062 178.589844 113.5 178.394531 C 113.335938 178.195312 113.191406 177.984375 113.074219 177.757812 C 112.953125 177.53125 112.859375 177.296875 112.789062 177.050781 C 112.71875 176.804688 112.675781 176.550781 112.660156 176.296875 C 112.644531 176.039062 112.65625 175.785156 112.695312 175.53125 C 112.734375 175.28125 112.796875 175.03125 112.886719 174.792969 C 112.980469 174.554688 113.09375 174.328125 113.234375 174.109375 C 113.371094 173.894531 113.53125 173.699219 113.714844 173.515625 L 123.171875 164.042969 C 123.351562 163.859375 123.550781 163.699219 123.765625 163.5625 C 123.980469 163.421875 124.207031 163.308594 124.449219 163.21875 C 124.6875 163.128906 124.933594 163.0625 125.1875 163.023438 C 125.441406 162.984375 125.695312 162.976562 125.953125 162.992188 C 126.207031 163.007812 126.460938 163.050781 126.707031 163.117188 C 126.953125 163.1875 127.191406 163.28125 127.417969 163.402344 C 127.644531 163.523438 127.855469 163.664062 128.050781 163.828125 C 128.246094 163.992188 128.425781 164.175781 128.582031 164.378906 L 131.519531 168.160156 C 133.90625 166.824219 136.414062 165.789062 139.042969 165.042969 L 138.449219 160.300781 C 138.417969 160.046875 138.414062 159.789062 138.433594 159.535156 C 138.457031 159.28125 138.503906 159.03125 138.582031 158.785156 C 138.65625 158.539062 138.757812 158.304688 138.882812 158.082031 C 139.007812 157.859375 139.15625 157.648438 139.324219 157.457031 C 139.496094 157.265625 139.683594 157.09375 139.890625 156.941406 C 140.097656 156.789062 140.316406 156.660156 140.550781 156.554688 C 140.785156 156.449219 141.027344 156.367188 141.277344 156.316406 C 141.527344 156.261719 141.78125 156.234375 142.039062 156.234375 L 155.429688 156.234375 C 155.6875 156.234375 155.941406 156.261719 156.191406 156.316406 C 156.441406 156.367188 156.683594 156.449219 156.917969 156.554688 C 157.152344 156.660156 157.371094 156.789062 157.578125 156.941406 C 157.785156 157.09375 157.972656 157.265625 158.144531 157.457031 C 158.3125 157.648438 158.460938 157.859375 158.585938 158.082031 C 158.710938 158.304688 158.8125 158.539062 158.886719 158.785156 C 158.964844 159.03125 159.011719 159.28125 159.035156 159.535156 C 159.054688 159.789062 159.050781 160.046875 159.019531 160.300781 L 158.425781 165.042969 C 161.054688 165.785156 163.5625 166.824219 165.949219 168.160156 L 168.886719 164.378906 C 169.042969 164.175781 169.21875 163.992188 169.417969 163.824219 C 169.613281 163.660156 169.828125 163.515625 170.054688 163.398438 C 170.28125 163.277344 170.519531 163.179688 170.765625 163.113281 C 171.011719 163.042969 171.265625 163 171.523438 162.984375 C 171.777344 162.96875 172.035156 162.980469 172.289062 163.015625 C 172.542969 163.054688 172.789062 163.121094 173.03125 163.210938 C 173.273438 163.304688 173.5 163.417969 173.714844 163.558594 C 173.929688 163.699219 174.128906 163.859375 174.3125 164.042969 L 183.78125 173.503906 C 183.960938 173.6875 184.121094 173.886719 184.261719 174.101562 C 184.402344 174.316406 184.515625 174.542969 184.609375 174.78125 C 184.699219 175.023438 184.765625 175.269531 184.804688 175.523438 C 184.839844 175.777344 184.851562 176.03125 184.835938 176.289062 C 184.820312 176.542969 184.777344 176.796875 184.710938 177.042969 C 184.640625 177.289062 184.546875 177.527344 184.425781 177.753906 C 184.304688 177.980469 184.164062 178.191406 183.996094 178.386719 C 183.832031 178.585938 183.648438 178.761719 183.445312 178.917969 L 179.660156 181.855469 C 180.996094 184.238281 182.035156 186.742188 182.78125 189.371094 L 187.527344 188.78125 C 187.78125 188.746094 188.039062 188.742188 188.292969 188.765625 C 188.546875 188.789062 188.800781 188.835938 189.042969 188.910156 C 189.289062 188.988281 189.523438 189.085938 189.746094 189.210938 C 189.972656 189.339844 190.179688 189.484375 190.371094 189.65625 C 190.5625 189.824219 190.738281 190.011719 190.890625 190.21875 C 191.042969 190.425781 191.171875 190.644531 191.277344 190.878906 C 191.382812 191.113281 191.460938 191.355469 191.515625 191.605469 C 191.570312 191.855469 191.597656 192.109375 191.597656 192.363281 L 191.597656 205.746094 C 191.597656 206.003906 191.570312 206.257812 191.515625 206.507812 C 191.460938 206.757812 191.382812 207 191.277344 207.234375 C 191.171875 207.464844 191.042969 207.6875 190.890625 207.890625 C 190.738281 208.097656 190.5625 208.285156 190.371094 208.457031 C 190.179688 208.625 189.972656 208.773438 189.746094 208.898438 C 189.523438 209.023438 189.289062 209.125 189.042969 209.199219 C 188.800781 209.273438 188.546875 209.324219 188.292969 209.34375 C 188.039062 209.367188 187.78125 209.363281 187.527344 209.332031 L 182.78125 208.738281 C 182.035156 211.367188 180.996094 213.871094 179.660156 216.253906 L 183.445312 219.191406 C 183.648438 219.347656 183.832031 219.527344 183.996094 219.722656 C 184.160156 219.917969 184.300781 220.128906 184.421875 220.355469 C 184.542969 220.582031 184.636719 220.820312 184.707031 221.066406 C 184.773438 221.3125 184.816406 221.5625 184.832031 221.820312 C 184.847656 222.074219 184.835938 222.328125 184.800781 222.582031 C 184.761719 222.835938 184.695312 223.082031 184.605469 223.320312 C 184.515625 223.5625 184.398438 223.789062 184.261719 224.003906 C 184.121094 224.21875 183.960938 224.417969 183.78125 224.597656 L 174.3125 234.0625 C 174.128906 234.242188 173.929688 234.402344 173.714844 234.542969 C 173.5 234.679688 173.273438 234.796875 173.035156 234.886719 C 172.792969 234.976562 172.546875 235.042969 172.292969 235.078125 C 172.039062 235.117188 171.785156 235.128906 171.53125 235.113281 C 171.273438 235.097656 171.023438 235.054688 170.777344 234.984375 C 170.527344 234.914062 170.292969 234.820312 170.066406 234.703125 C 169.839844 234.582031 169.628906 234.441406 169.429688 234.273438 C 169.234375 234.109375 169.058594 233.925781 168.898438 233.726562 L 165.960938 229.945312 C 163.578125 231.277344 161.070312 232.316406 158.441406 233.0625 L 159.03125 237.804688 C 159.066406 238.058594 159.070312 238.3125 159.046875 238.570312 C 159.027344 238.824219 158.976562 239.074219 158.902344 239.320312 C 158.824219 239.566406 158.726562 239.800781 158.597656 240.023438 C 158.472656 240.246094 158.328125 240.453125 158.15625 240.648438 C 157.988281 240.839844 157.796875 241.011719 157.59375 241.164062 C 157.386719 241.316406 157.164062 241.445312 156.933594 241.550781 C 156.699219 241.65625 156.457031 241.734375 156.203125 241.789062 C 155.953125 241.84375 155.699219 241.871094 155.441406 241.871094 Z M 146.140625 234.652344 L 151.339844 234.652344 L 150.851562 230.738281 C 150.792969 230.277344 150.824219 229.828125 150.941406 229.378906 C 151.054688 228.933594 151.25 228.523438 151.523438 228.152344 C 151.796875 227.777344 152.128906 227.46875 152.523438 227.226562 C 152.914062 226.980469 153.335938 226.816406 153.789062 226.734375 C 157.773438 226.015625 161.421875 224.503906 164.742188 222.195312 C 165.121094 221.933594 165.539062 221.75 165.988281 221.644531 C 166.4375 221.542969 166.894531 221.523438 167.351562 221.59375 C 167.808594 221.664062 168.234375 221.816406 168.632812 222.050781 C 169.03125 222.285156 169.375 222.582031 169.65625 222.949219 L 172.085938 226.066406 L 175.761719 222.390625 L 172.648438 219.964844 C 172.28125 219.679688 171.984375 219.339844 171.75 218.941406 C 171.515625 218.542969 171.363281 218.113281 171.292969 217.65625 C 171.222656 217.203125 171.242188 216.75 171.347656 216.296875 C 171.449219 215.847656 171.632812 215.433594 171.898438 215.054688 C 174.207031 211.734375 175.71875 208.089844 176.4375 204.109375 C 176.519531 203.65625 176.683594 203.234375 176.929688 202.84375 C 177.175781 202.453125 177.484375 202.121094 177.855469 201.847656 C 178.230469 201.574219 178.640625 201.378906 179.085938 201.261719 C 179.53125 201.148438 179.984375 201.117188 180.445312 201.175781 L 184.367188 201.664062 L 184.367188 196.46875 L 180.445312 196.957031 C 179.984375 197.011719 179.53125 196.984375 179.085938 196.867188 C 178.640625 196.75 178.230469 196.558594 177.855469 196.285156 C 177.484375 196.011719 177.175781 195.679688 176.929688 195.289062 C 176.683594 194.894531 176.519531 194.472656 176.4375 194.019531 C 175.71875 190.042969 174.207031 186.394531 171.898438 183.078125 C 171.632812 182.699219 171.449219 182.28125 171.347656 181.832031 C 171.242188 181.382812 171.222656 180.929688 171.292969 180.472656 C 171.363281 180.015625 171.515625 179.589844 171.75 179.191406 C 171.984375 178.792969 172.28125 178.449219 172.648438 178.167969 L 175.761719 175.726562 L 172.082031 172.054688 L 169.65625 175.171875 C 169.375 175.535156 169.03125 175.835938 168.632812 176.070312 C 168.234375 176.304688 167.808594 176.457031 167.351562 176.527344 C 166.894531 176.59375 166.4375 176.578125 165.988281 176.476562 C 165.539062 176.371094 165.121094 176.1875 164.742188 175.925781 C 161.421875 173.617188 157.773438 172.101562 153.789062 171.386719 C 153.335938 171.304688 152.914062 171.140625 152.523438 170.894531 C 152.128906 170.648438 151.796875 170.339844 151.523438 169.96875 C 151.25 169.597656 151.054688 169.1875 150.941406 168.738281 C 150.824219 168.292969 150.792969 167.839844 150.851562 167.382812 L 151.347656 163.464844 L 146.148438 163.464844 L 146.636719 167.382812 C 146.695312 167.839844 146.664062 168.292969 146.546875 168.738281 C 146.433594 169.1875 146.238281 169.597656 145.964844 169.96875 C 145.691406 170.339844 145.359375 170.648438 144.96875 170.894531 C 144.574219 171.140625 144.152344 171.304688 143.699219 171.386719 C 139.714844 172.101562 136.066406 173.617188 132.742188 175.925781 C 132.363281 176.1875 131.949219 176.371094 131.5 176.476562 C 131.046875 176.578125 130.59375 176.59375 130.136719 176.527344 C 129.679688 176.457031 129.253906 176.304688 128.851562 176.070312 C 128.453125 175.835938 128.113281 175.535156 127.828125 175.171875 L 125.402344 172.054688 L 121.710938 175.726562 L 124.835938 178.15625 C 125.199219 178.441406 125.496094 178.78125 125.730469 179.179688 C 125.964844 179.578125 126.113281 180.007812 126.183594 180.464844 C 126.253906 180.917969 126.234375 181.371094 126.132812 181.824219 C 126.027344 182.273438 125.84375 182.6875 125.578125 183.066406 C 123.269531 186.382812 121.753906 190.03125 121.035156 194.007812 C 120.953125 194.460938 120.789062 194.886719 120.542969 195.277344 C 120.300781 195.667969 119.992188 196 119.617188 196.273438 C 119.246094 196.546875 118.835938 196.738281 118.390625 196.855469 C 117.941406 196.972656 117.488281 197 117.03125 196.945312 L 113.109375 196.457031 L 113.109375 201.652344 L 117.03125 201.164062 C 117.488281 201.105469 117.941406 201.136719 118.390625 201.253906 C 118.835938 201.367188 119.246094 201.5625 119.617188 201.835938 C 119.992188 202.109375 120.300781 202.441406 120.542969 202.832031 C 120.789062 203.222656 120.953125 203.644531 121.035156 204.101562 C 121.753906 208.082031 123.265625 211.734375 125.578125 215.054688 C 125.839844 215.433594 126.023438 215.847656 126.128906 216.296875 C 126.234375 216.75 126.25 217.203125 126.179688 217.65625 C 126.113281 218.113281 125.960938 218.542969 125.726562 218.941406 C 125.492188 219.339844 125.191406 219.679688 124.828125 219.964844 L 121.710938 222.390625 L 125.390625 226.066406 L 127.816406 222.949219 C 128.101562 222.582031 128.445312 222.285156 128.84375 222.050781 C 129.242188 221.816406 129.667969 221.664062 130.125 221.59375 C 130.582031 221.523438 131.035156 221.542969 131.488281 221.644531 C 131.9375 221.75 132.351562 221.933594 132.734375 222.195312 C 136.054688 224.503906 139.703125 226.015625 143.6875 226.734375 C 144.140625 226.816406 144.5625 226.980469 144.957031 227.226562 C 145.347656 227.46875 145.679688 227.777344 145.953125 228.152344 C 146.226562 228.523438 146.421875 228.933594 146.539062 229.378906 C 146.652344 229.828125 146.683594 230.277344 146.625 230.738281 Z M 146.140625 234.652344 " fill-opacity="1" fill-rule="nonzero"/><path fill="#000000" d="M 148.742188 221.914062 C 147.992188 221.914062 147.246094 221.875 146.5 221.804688 C 145.753906 221.730469 145.015625 221.621094 144.277344 221.472656 C 143.542969 221.328125 142.820312 221.144531 142.101562 220.929688 C 141.386719 220.710938 140.679688 220.460938 139.988281 220.171875 C 139.296875 219.886719 138.621094 219.566406 137.960938 219.214844 C 137.296875 218.863281 136.65625 218.476562 136.035156 218.0625 C 135.410156 217.644531 134.808594 217.199219 134.230469 216.726562 C 133.652344 216.25 133.097656 215.75 132.566406 215.21875 C 132.039062 214.691406 131.535156 214.136719 131.0625 213.558594 C 130.585938 212.980469 130.140625 212.378906 129.722656 211.757812 C 129.308594 211.136719 128.921875 210.492188 128.570312 209.835938 C 128.214844 209.175781 127.894531 208.5 127.609375 207.808594 C 127.324219 207.117188 127.070312 206.410156 126.851562 205.695312 C 126.636719 204.980469 126.453125 204.253906 126.308594 203.519531 C 126.160156 202.785156 126.050781 202.046875 125.976562 201.300781 C 125.90625 200.558594 125.867188 199.808594 125.867188 199.0625 C 125.867188 198.3125 125.902344 197.566406 125.976562 196.820312 C 126.050781 196.078125 126.160156 195.335938 126.304688 194.601562 C 126.453125 193.871094 126.632812 193.144531 126.851562 192.429688 C 127.070312 191.710938 127.320312 191.007812 127.605469 190.316406 C 127.894531 189.625 128.214844 188.949219 128.566406 188.289062 C 128.917969 187.628906 129.304688 186.988281 129.71875 186.363281 C 130.136719 185.742188 130.582031 185.140625 131.058594 184.5625 C 131.53125 183.984375 132.035156 183.429688 132.5625 182.902344 C 133.09375 182.371094 133.648438 181.871094 134.226562 181.394531 C 134.804688 180.921875 135.40625 180.476562 136.027344 180.058594 C 136.652344 179.644531 137.292969 179.257812 137.953125 178.90625 C 138.613281 178.550781 139.289062 178.234375 139.984375 177.945312 C 140.675781 177.660156 141.378906 177.40625 142.097656 177.191406 C 142.8125 176.972656 143.539062 176.789062 144.273438 176.644531 C 145.007812 176.5 145.746094 176.386719 146.492188 176.316406 C 147.238281 176.242188 147.984375 176.203125 148.734375 176.203125 C 149.484375 176.203125 150.230469 176.242188 150.976562 176.3125 C 151.722656 176.386719 152.460938 176.496094 153.195312 176.640625 C 153.933594 176.789062 154.65625 176.96875 155.375 177.1875 C 156.089844 177.402344 156.796875 177.65625 157.488281 177.941406 C 158.179688 178.226562 158.855469 178.546875 159.515625 178.898438 C 160.179688 179.253906 160.820312 179.636719 161.441406 180.050781 C 162.066406 180.46875 162.667969 180.914062 163.246094 181.386719 C 163.824219 181.863281 164.378906 182.363281 164.910156 182.894531 C 165.441406 183.421875 165.941406 183.976562 166.417969 184.554688 C 166.894531 185.132812 167.339844 185.734375 167.753906 186.355469 C 168.171875 186.976562 168.554688 187.617188 168.910156 188.277344 C 169.261719 188.9375 169.582031 189.613281 169.871094 190.304688 C 170.15625 190.996094 170.410156 191.699219 170.628906 192.417969 C 170.84375 193.132812 171.027344 193.859375 171.171875 194.589844 C 171.320312 195.324219 171.429688 196.066406 171.503906 196.808594 C 171.578125 197.554688 171.613281 198.300781 171.613281 199.050781 C 171.613281 199.796875 171.578125 200.542969 171.503906 201.289062 C 171.429688 202.035156 171.320312 202.773438 171.171875 203.507812 C 171.027344 204.242188 170.84375 204.96875 170.625 205.683594 C 170.40625 206.398438 170.15625 207.101562 169.867188 207.792969 C 169.582031 208.484375 169.261719 209.160156 168.910156 209.820312 C 168.554688 210.480469 168.171875 211.121094 167.753906 211.746094 C 167.339844 212.367188 166.890625 212.96875 166.417969 213.546875 C 165.941406 214.125 165.441406 214.679688 164.910156 215.207031 C 164.378906 215.738281 163.828125 216.238281 163.246094 216.714844 C 162.667969 217.191406 162.066406 217.636719 161.445312 218.050781 C 160.824219 218.46875 160.179688 218.851562 159.519531 219.207031 C 158.859375 219.558594 158.183594 219.878906 157.492188 220.164062 C 156.800781 220.453125 156.097656 220.703125 155.378906 220.921875 C 154.664062 221.140625 153.9375 221.324219 153.203125 221.46875 C 152.46875 221.617188 151.726562 221.726562 150.984375 221.800781 C 150.238281 221.875 149.488281 221.914062 148.742188 221.914062 Z M 148.742188 183.433594 C 147.714844 183.433594 146.695312 183.535156 145.6875 183.734375 C 144.683594 183.933594 143.703125 184.230469 142.753906 184.625 C 141.804688 185.015625 140.90625 185.5 140.050781 186.070312 C 139.195312 186.640625 138.40625 187.285156 137.679688 188.011719 C 136.953125 188.738281 136.304688 189.527344 135.734375 190.382812 C 135.164062 191.234375 134.683594 192.136719 134.289062 193.082031 C 133.898438 194.03125 133.601562 195.007812 133.402344 196.015625 C 133.199219 197.023438 133.101562 198.039062 133.101562 199.066406 C 133.101562 200.089844 133.203125 201.105469 133.402344 202.113281 C 133.601562 203.121094 133.898438 204.097656 134.292969 205.046875 C 134.6875 205.992188 135.167969 206.894531 135.738281 207.746094 C 136.3125 208.601562 136.960938 209.390625 137.6875 210.113281 C 138.414062 210.839844 139.203125 211.488281 140.058594 212.058594 C 140.910156 212.628906 141.8125 213.109375 142.761719 213.5 C 143.710938 213.894531 144.6875 214.1875 145.695312 214.390625 C 146.703125 214.589844 147.722656 214.6875 148.75 214.6875 C 149.777344 214.6875 150.792969 214.585938 151.800781 214.386719 C 152.808594 214.183594 153.785156 213.886719 154.734375 213.496094 C 155.683594 213.101562 156.582031 212.621094 157.4375 212.050781 C 158.292969 211.480469 159.082031 210.832031 159.808594 210.105469 C 160.53125 209.378906 161.179688 208.589844 161.75 207.734375 C 162.320312 206.882812 162.800781 205.980469 163.195312 205.03125 C 163.585938 204.082031 163.882812 203.105469 164.082031 202.097656 C 164.28125 201.09375 164.382812 200.074219 164.382812 199.050781 C 164.378906 198.023438 164.277344 197.007812 164.074219 196.003906 C 163.875 195 163.578125 194.023438 163.183594 193.074219 C 162.789062 192.128906 162.308594 191.230469 161.738281 190.378906 C 161.164062 189.523438 160.515625 188.738281 159.792969 188.011719 C 159.066406 187.285156 158.277344 186.640625 157.421875 186.070312 C 156.570312 185.5 155.667969 185.019531 154.722656 184.625 C 153.773438 184.234375 152.796875 183.9375 151.789062 183.738281 C 150.785156 183.535156 149.765625 183.433594 148.742188 183.433594 Z M 148.742188 183.433594 " fill-opacity="1" fill-rule="nonzero"/><path fill="#000000" d="M 232.453125 202.664062 C 222.957031 202.664062 213.960938 200.316406 207.136719 196.046875 C 199.792969 191.453125 195.75 185.167969 195.75 178.34375 C 195.75 171.523438 199.792969 165.246094 207.136719 160.644531 C 213.949219 156.378906 222.9375 154.027344 232.453125 154.027344 C 241.964844 154.027344 250.945312 156.378906 257.769531 160.644531 C 265.109375 165.238281 269.15625 171.527344 269.15625 178.34375 C 269.15625 185.164062 265.109375 191.445312 257.769531 196.046875 C 250.945312 200.324219 241.957031 202.664062 232.453125 202.664062 Z M 232.453125 161.253906 C 216.484375 161.253906 202.992188 169.082031 202.992188 178.34375 C 202.992188 187.609375 216.484375 195.4375 232.453125 195.4375 C 248.421875 195.4375 261.914062 187.609375 261.914062 178.34375 C 261.914062 169.082031 248.421875 161.265625 232.453125 161.265625 Z M 232.453125 161.253906 " fill-opacity="1" fill-rule="nonzero"/><path fill="#000000" d="M 232.453125 223.375 C 219.511719 223.375 207.8125 219.074219 201.144531 211.859375 C 197.621094 208.046875 195.757812 203.617188 195.757812 199.050781 C 195.757812 198.574219 195.851562 198.113281 196.035156 197.667969 C 196.21875 197.226562 196.476562 196.835938 196.816406 196.496094 C 197.15625 196.15625 197.546875 195.898438 197.992188 195.714844 C 198.433594 195.53125 198.894531 195.4375 199.375 195.4375 C 199.855469 195.4375 200.316406 195.53125 200.757812 195.714844 C 201.203125 195.898438 201.59375 196.15625 201.933594 196.496094 C 202.273438 196.835938 202.53125 197.226562 202.714844 197.667969 C 202.898438 198.113281 202.992188 198.574219 202.992188 199.050781 C 202.992188 201.808594 204.15625 204.472656 206.460938 206.957031 C 211.699219 212.625 221.660156 216.144531 232.453125 216.144531 C 243.25 216.144531 253.207031 212.625 258.449219 206.957031 C 260.75 204.472656 261.917969 201.808594 261.917969 199.050781 C 261.917969 198.574219 262.007812 198.113281 262.191406 197.667969 C 262.375 197.226562 262.636719 196.835938 262.976562 196.496094 C 263.316406 196.15625 263.707031 195.898438 264.148438 195.714844 C 264.59375 195.53125 265.054688 195.4375 265.535156 195.4375 C 266.011719 195.4375 266.476562 195.53125 266.917969 195.714844 C 267.359375 195.898438 267.753906 196.15625 268.089844 196.496094 C 268.429688 196.835938 268.691406 197.226562 268.875 197.667969 C 269.058594 198.113281 269.152344 198.574219 269.152344 199.050781 C 269.152344 203.617188 267.289062 208.046875 263.765625 211.859375 C 257.09375 219.074219 245.382812 223.375 232.453125 223.375 Z M 232.453125 223.375 " fill-opacity="1" fill-rule="nonzero"/><path fill="#000000" d="M 232.453125 244.082031 C 222.957031 244.082031 213.960938 241.730469 207.136719 237.464844 C 199.792969 232.871094 195.75 226.582031 195.75 219.761719 C 195.75 219.285156 195.839844 218.824219 196.023438 218.378906 C 196.207031 217.9375 196.46875 217.546875 196.808594 217.207031 C 197.148438 216.867188 197.539062 216.609375 197.980469 216.425781 C 198.425781 216.242188 198.886719 216.148438 199.367188 216.148438 C 199.84375 216.148438 200.308594 216.242188 200.75 216.425781 C 201.191406 216.609375 201.585938 216.867188 201.921875 217.207031 C 202.261719 217.546875 202.523438 217.9375 202.707031 218.378906 C 202.890625 218.824219 202.984375 219.285156 202.984375 219.761719 C 202.984375 229.023438 216.476562 236.855469 232.441406 236.855469 C 248.410156 236.855469 261.902344 229.027344 261.902344 219.761719 C 261.902344 219.285156 261.996094 218.824219 262.179688 218.378906 C 262.363281 217.9375 262.625 217.546875 262.960938 217.207031 C 263.300781 216.867188 263.691406 216.609375 264.136719 216.425781 C 264.578125 216.242188 265.039062 216.148438 265.519531 216.148438 C 266 216.148438 266.460938 216.242188 266.902344 216.425781 C 267.347656 216.609375 267.738281 216.867188 268.078125 217.207031 C 268.417969 217.546875 268.679688 217.9375 268.863281 218.378906 C 269.046875 218.824219 269.136719 219.285156 269.136719 219.761719 C 269.136719 226.582031 265.09375 232.863281 257.75 237.464844 C 250.945312 241.738281 241.957031 244.082031 232.453125 244.082031 Z M 232.453125 244.082031 " fill-opacity="1" fill-rule="nonzero"/><path fill="#000000" d="M 265.527344 223.378906 C 265.050781 223.378906 264.589844 223.289062 264.144531 223.105469 C 263.703125 222.921875 263.3125 222.660156 262.972656 222.320312 C 262.632812 221.980469 262.371094 221.589844 262.1875 221.148438 C 262.003906 220.707031 261.914062 220.246094 261.914062 219.765625 L 261.914062 178.355469 C 261.914062 177.875 262.003906 177.414062 262.1875 176.972656 C 262.371094 176.527344 262.632812 176.136719 262.972656 175.800781 C 263.3125 175.460938 263.703125 175.199219 264.144531 175.015625 C 264.589844 174.832031 265.050781 174.742188 265.527344 174.742188 C 266.007812 174.742188 266.46875 174.832031 266.914062 175.015625 C 267.355469 175.199219 267.746094 175.460938 268.085938 175.800781 C 268.425781 176.136719 268.6875 176.527344 268.871094 176.972656 C 269.054688 177.414062 269.144531 177.875 269.144531 178.355469 L 269.144531 219.765625 C 269.144531 220.246094 269.054688 220.707031 268.871094 221.148438 C 268.6875 221.589844 268.425781 221.980469 268.085938 222.320312 C 267.746094 222.660156 267.355469 222.921875 266.914062 223.105469 C 266.46875 223.289062 266.007812 223.378906 265.527344 223.378906 Z M 265.527344 223.378906 " fill-opacity="1" fill-rule="nonzero"/><path fill="#000000" d="M 199.378906 223.378906 C 198.898438 223.378906 198.4375 223.289062 197.992188 223.105469 C 197.550781 222.921875 197.160156 222.660156 196.820312 222.320312 C 196.480469 221.980469 196.21875 221.589844 196.035156 221.148438 C 195.851562 220.707031 195.761719 220.246094 195.761719 219.765625 L 195.761719 178.355469 C 195.761719 177.875 195.851562 177.414062 196.035156 176.972656 C 196.21875 176.527344 196.480469 176.136719 196.820312 175.800781 C 197.160156 175.460938 197.550781 175.199219 197.992188 175.015625 C 198.4375 174.832031 198.898438 174.742188 199.378906 174.742188 C 199.855469 174.742188 200.316406 174.832031 200.761719 175.015625 C 201.203125 175.199219 201.59375 175.460938 201.933594 175.800781 C 202.273438 176.136719 202.535156 176.527344 202.71875 176.972656 C 202.902344 177.414062 202.992188 177.875 202.992188 178.355469 L 202.992188 219.765625 C 202.992188 220.246094 202.902344 220.707031 202.71875 221.148438 C 202.535156 221.589844 202.273438 221.980469 201.933594 222.320312 C 201.59375 222.660156 201.203125 222.921875 200.761719 223.105469 C 200.316406 223.289062 199.855469 223.378906 199.378906 223.378906 Z M 199.378906 223.378906 " fill-opacity="1" fill-rule="nonzero"/></svg>