<svg xmlns="http://www.w3.org/2000/svg" xmlns:xlink="http://www.w3.org/1999/xlink" width="500" zoomAndPan="magnify" viewBox="0 0 375 374.999991" height="500" preserveAspectRatio="xMidYMid meet" version="1.0"><defs><clipPath id="69ede0e0aa"><path d="M 103 109.277344 L 174 109.277344 L 174 152 L 103 152 Z M 103 109.277344 " clip-rule="nonzero"/></clipPath><clipPath id="94266e8f07"><path d="M 72 189.277344 L 203.597656 189.277344 L 203.597656 266.015625 L 72 266.015625 Z M 72 189.277344 " clip-rule="nonzero"/></clipPath><clipPath id="bad4ab6747"><path d="M 96.214844 229.175781 L 104.320312 229.175781 L 104.320312 266.015625 L 96.214844 266.015625 Z M 96.214844 229.175781 " clip-rule="nonzero"/></clipPath><clipPath id="d3010d9125"><path d="M 63.121094 258 L 312.089844 258 L 312.089844 266.015625 L 63.121094 266.015625 Z M 63.121094 258 " clip-rule="nonzero"/></clipPath><clipPath id="568885c4c8"><path d="M 165.101562 243 L 294.773438 243 L 294.773438 266.015625 L 165.101562 266.015625 Z M 165.101562 243 " clip-rule="nonzero"/></clipPath></defs><g clip-path="url(#69ede0e0aa)"><path fill="#231f20" d="M 163.910156 151.53125 C 162.839844 151.53125 161.792969 151.089844 161.054688 150.304688 C 160.5 149.71875 160.175781 149.070312 159.679688 148.089844 C 158.875 146.480469 157.371094 143.484375 154.269531 139.550781 C 152.988281 137.929688 152.484375 137.382812 152.15625 137.0625 C 151.984375 136.894531 151.640625 136.570312 151.15625 136.167969 C 150.484375 136.820312 149.753906 137.390625 148.964844 137.882812 C 145.535156 140.027344 142.132812 139.945312 139.65625 139.882812 L 139.484375 139.878906 C 139.410156 139.878906 132.03125 139.710938 124.15625 140.253906 L 123.78125 140.28125 C 121.191406 140.457031 118.746094 140.625 116.917969 141.601562 C 115.292969 142.464844 114.277344 144.480469 113.621094 148.128906 C 113.355469 149.589844 112.328125 150.800781 110.945312 151.289062 C 109.238281 151.890625 107.421875 151.328125 106.3125 149.851562 C 104.644531 147.640625 104.324219 144.695312 104.109375 142.746094 L 104.101562 142.679688 C 103.714844 139.144531 103.230469 132.820312 104.359375 130.128906 C 104.972656 128.667969 106.8125 124.867188 110.644531 121.160156 C 118.121094 113.925781 130.359375 111.09375 132.734375 110.601562 C 137.371094 109.636719 141.816406 109.292969 145.9375 109.582031 C 148.832031 109.78125 151.292969 110.148438 153.453125 110.695312 C 156.472656 111.460938 158.859375 112.964844 160.34375 115.046875 C 161.109375 116.113281 161.558594 117.171875 161.960938 118.113281 C 162.28125 118.863281 162.558594 119.515625 162.875 119.851562 C 163.398438 120.410156 164.152344 120.949219 164.953125 121.523438 C 165.90625 122.203125 166.992188 122.972656 167.988281 123.992188 C 170.402344 126.457031 173.132812 130.601562 173.558594 134.84375 C 173.960938 138.851562 172.257812 142.261719 170.730469 144.789062 C 170.558594 145.070312 169.738281 146.347656 168.925781 147.535156 C 167.382812 149.796875 166.363281 151.292969 164.320312 151.507812 C 164.183594 151.523438 164.046875 151.53125 163.910156 151.53125 Z M 150.421875 127.199219 C 152.050781 127.199219 153.359375 128.117188 154.113281 128.644531 L 154.183594 128.695312 C 155.851562 129.855469 157.039062 130.945312 157.597656 131.496094 C 158.210938 132.09375 158.914062 132.871094 160.371094 134.722656 C 162.058594 136.859375 163.335938 138.753906 164.308594 140.355469 C 165.476562 138.347656 165.941406 136.875 165.816406 135.621094 C 165.640625 133.867188 164.21875 131.273438 162.433594 129.449219 C 161.914062 128.921875 161.199219 128.40625 160.4375 127.863281 C 159.410156 127.132812 158.25 126.304688 157.195312 125.175781 C 155.941406 123.839844 155.3125 122.359375 154.804688 121.171875 C 154.527344 120.519531 154.289062 119.957031 154.019531 119.582031 C 153.625 119.035156 152.722656 118.546875 151.542969 118.25 C 149.835938 117.816406 147.824219 117.523438 145.394531 117.351562 C 141.984375 117.117188 138.257812 117.410156 134.316406 118.230469 C 128.765625 119.382812 120.652344 122.308594 116.050781 126.761719 C 113.3125 129.410156 111.992188 132.085938 111.585938 133.015625 C 111.503906 133.417969 111.429688 134.394531 111.445312 135.914062 C 111.992188 135.480469 112.59375 135.082031 113.253906 134.726562 C 116.554688 132.96875 120.109375 132.722656 123.25 132.507812 L 123.621094 132.484375 C 131.871094 131.914062 139.355469 132.085938 139.671875 132.089844 L 139.84375 132.09375 C 141.75 132.144531 143.394531 132.183594 144.847656 131.273438 C 145.605469 130.800781 146.257812 130.113281 146.792969 129.234375 C 147.386719 128.25 148.371094 127.542969 149.5 127.300781 C 149.816406 127.234375 150.125 127.199219 150.421875 127.199219 Z M 153.46875 133.238281 C 153.460938 133.25 153.453125 133.261719 153.445312 133.273438 C 153.453125 133.261719 153.460938 133.25 153.46875 133.238281 Z M 153.46875 133.238281 " fill-opacity="1" fill-rule="evenodd"/></g><path fill="#231f20" d="M 138.300781 193.398438 C 136.527344 193.398438 134.503906 193.230469 132.335938 192.75 C 130.398438 192.324219 125.359375 190.890625 120.421875 186.84375 C 118.054688 184.902344 113.71875 180.625 111.253906 173.761719 C 110.691406 172.191406 110.292969 170.523438 110.035156 169.222656 C 106.152344 167.234375 103.1875 163.40625 102.191406 158.90625 C 101.023438 153.613281 102.808594 148.433594 107.085938 144.691406 C 108.703125 143.277344 111.164062 143.445312 112.574219 145.066406 C 113.988281 146.683594 113.820312 149.148438 112.203125 150.558594 C 109.511719 152.914062 109.40625 155.484375 109.789062 157.222656 C 110.355469 159.785156 112.324219 162.035156 114.585938 162.691406 C 116.0625 163.121094 117.152344 164.382812 117.355469 165.910156 C 117.539062 167.253906 117.964844 169.425781 118.574219 171.125 C 120.476562 176.414062 123.945312 179.664062 125.351562 180.816406 C 129.089844 183.882812 132.925781 184.902344 134.011719 185.144531 C 137.96875 186.015625 141.222656 185.445312 142.433594 185.15625 C 145.75 184.371094 148.003906 182.816406 148.96875 182.15625 C 149.664062 181.675781 151.480469 180.324219 153.34375 178.117188 C 156.046875 174.921875 158.042969 170.539062 159.128906 165.449219 C 159.460938 163.886719 160.710938 162.6875 162.285156 162.421875 C 163.917969 162.144531 166.125 158.90625 166.367188 155.511719 C 166.613281 152.09375 164.839844 151.523438 164.253906 151.335938 C 162.207031 150.675781 161.085938 148.484375 161.742188 146.433594 C 162.398438 144.386719 164.589844 143.261719 166.636719 143.917969 C 171.683594 145.542969 174.550781 150.199219 174.128906 156.074219 C 173.753906 161.230469 170.789062 166.972656 166.222656 169.238281 C 164.78125 174.722656 162.453125 179.394531 159.289062 183.144531 C 156.90625 185.96875 154.5625 187.757812 153.378906 188.574219 C 152.171875 189.40625 148.957031 191.621094 144.226562 192.738281 C 142.949219 193.039062 140.882812 193.398438 138.300781 193.398438 " fill-opacity="1" fill-rule="evenodd"/><path fill="#231f20" d="M 122.972656 203.035156 C 122.394531 203.035156 121.800781 202.902344 121.25 202.625 C 119.324219 201.671875 118.535156 199.332031 119.492188 197.40625 C 120.214844 195.953125 121.4375 193.039062 121.515625 189.867188 C 121.546875 188.730469 121.410156 188.25 121.140625 187.292969 C 121.058594 187.007812 120.96875 186.683594 120.875 186.324219 C 120.34375 184.242188 121.597656 182.117188 123.679688 181.585938 C 125.757812 181.050781 127.878906 182.304688 128.414062 184.390625 C 128.480469 184.652344 128.550781 184.902344 128.625 185.167969 C 128.96875 186.375 129.355469 187.746094 129.292969 190.070312 C 129.171875 194.738281 127.46875 198.839844 126.460938 200.871094 C 125.785156 202.238281 124.40625 203.035156 122.972656 203.035156 " fill-opacity="1" fill-rule="evenodd"/><path fill="#231f20" d="M 152.984375 203.941406 C 151.621094 203.941406 150.300781 203.226562 149.585938 201.949219 C 148.0625 199.226562 146.21875 194.957031 146.089844 190.070312 C 146.03125 187.746094 146.417969 186.375 146.757812 185.167969 C 146.789062 185.058594 146.820312 184.945312 146.851562 184.832031 C 147.425781 182.761719 149.570312 181.546875 151.644531 182.121094 C 153.714844 182.695312 154.925781 184.84375 154.347656 186.917969 C 154.316406 187.042969 154.277344 187.167969 154.242188 187.289062 C 153.976562 188.246094 153.835938 188.726562 153.867188 189.871094 C 153.953125 193.160156 155.277344 196.183594 156.371094 198.140625 C 157.421875 200.019531 156.753906 202.390625 154.882812 203.441406 C 154.28125 203.78125 153.625 203.941406 152.984375 203.941406 " fill-opacity="1" fill-rule="evenodd"/><g clip-path="url(#94266e8f07)"><path fill="#231f20" d="M 199.570312 266.015625 L 76.445312 266.015625 C 74.304688 266.015625 72.5625 264.277344 72.554688 262.132812 C 72.527344 253.304688 72.9375 231.230469 77.359375 216.960938 C 78.558594 213.09375 80.015625 209.929688 81.945312 207.007812 C 83.566406 204.558594 88.226562 198.40625 96.542969 194.175781 C 104.15625 190.296875 111.441406 189.71875 116.210938 189.914062 C 117.144531 189.957031 118.03125 190.328125 118.710938 190.96875 L 137.511719 208.640625 L 157.378906 190.902344 C 158.050781 190.300781 158.90625 189.953125 159.808594 189.914062 C 164.527344 189.71875 171.742188 190.285156 179.289062 194.082031 C 181.210938 195.046875 181.988281 197.390625 181.023438 199.3125 C 180.058594 201.234375 177.722656 202.007812 175.800781 201.042969 C 170.417969 198.339844 165.238281 197.675781 161.484375 197.671875 L 140.03125 216.824219 C 138.527344 218.167969 136.25 218.136719 134.78125 216.757812 L 114.476562 197.671875 C 110.6875 197.683594 105.476562 198.363281 100.070312 201.117188 C 93.40625 204.511719 89.710938 209.375 88.433594 211.308594 C 86.902344 213.628906 85.777344 216.082031 84.792969 219.269531 C 81.195312 230.875 80.476562 249.03125 80.355469 258.226562 L 199.570312 258.222656 C 201.71875 258.222656 203.460938 259.96875 203.460938 262.121094 C 203.460938 264.269531 201.71875 266.015625 199.570312 266.015625 " fill-opacity="1" fill-rule="evenodd"/></g><g clip-path="url(#bad4ab6747)"><path fill="#231f20" d="M 100.277344 266.015625 C 98.128906 266.015625 96.386719 264.273438 96.386719 262.121094 L 96.386719 233.125 C 96.386719 230.972656 98.128906 229.230469 100.277344 229.230469 C 102.425781 229.230469 104.167969 230.972656 104.167969 233.125 L 104.167969 262.121094 C 104.167969 264.273438 102.425781 266.015625 100.277344 266.015625 " fill-opacity="1" fill-rule="evenodd"/></g><g clip-path="url(#d3010d9125)"><path fill="#231f20" d="M 308.199219 266.015625 L 67.011719 266.015625 C 64.863281 266.015625 63.121094 264.273438 63.121094 262.121094 C 63.121094 259.96875 64.863281 258.226562 67.011719 258.226562 L 308.199219 258.226562 C 310.351562 258.226562 312.089844 259.96875 312.089844 262.121094 C 312.089844 264.273438 310.351562 266.015625 308.199219 266.015625 " fill-opacity="1" fill-rule="evenodd"/></g><g clip-path="url(#568885c4c8)"><path fill="#231f20" d="M 275.632812 266.015625 L 184.089844 266.015625 C 173.746094 266.015625 165.328125 257.589844 165.328125 247.230469 C 165.328125 245.078125 167.070312 243.335938 169.21875 243.335938 L 290.503906 243.335938 C 292.652344 243.335938 294.390625 245.078125 294.390625 247.230469 C 294.390625 257.589844 285.976562 266.015625 275.632812 266.015625 Z M 173.820312 251.125 C 175.394531 255.269531 179.402344 258.226562 184.089844 258.226562 L 275.632812 258.226562 C 280.316406 258.226562 284.328125 255.269531 285.902344 251.125 L 173.820312 251.125 " fill-opacity="1" fill-rule="evenodd"/></g><path fill="#231f20" d="M 282.175781 251.125 L 177.546875 251.125 C 175.398438 251.125 173.65625 249.382812 173.65625 247.230469 L 173.65625 187.019531 C 173.65625 181.292969 178.308594 176.632812 184.027344 176.632812 L 275.691406 176.632812 C 281.410156 176.632812 286.066406 181.292969 286.066406 187.019531 L 286.066406 247.230469 C 286.066406 249.382812 284.324219 251.125 282.175781 251.125 Z M 181.4375 243.335938 L 278.285156 243.335938 L 278.285156 187.019531 C 278.285156 185.585938 277.121094 184.421875 275.691406 184.421875 L 184.027344 184.421875 C 182.597656 184.421875 181.4375 185.585938 181.4375 187.019531 L 181.4375 243.335938 " fill-opacity="1" fill-rule="evenodd"/><path fill="#231f20" d="M 212.410156 160.09375 C 211.585938 160.09375 210.757812 159.832031 210.054688 159.292969 L 189.390625 143.488281 C 188.425781 142.75 187.859375 141.609375 187.859375 140.394531 C 187.859375 139.179688 188.425781 138.035156 189.390625 137.300781 L 210.054688 121.496094 C 211.761719 120.191406 214.203125 120.519531 215.503906 122.226562 C 216.8125 123.9375 216.484375 126.382812 214.777344 127.6875 L 198.160156 140.394531 L 214.777344 153.101562 C 216.484375 154.40625 216.8125 156.851562 215.503906 158.5625 C 214.738281 159.566406 213.582031 160.089844 212.410156 160.09375 " fill-opacity="1" fill-rule="evenodd"/><path fill="#231f20" d="M 247.3125 160.09375 C 246.140625 160.09375 244.980469 159.566406 244.214844 158.5625 C 242.914062 156.851562 243.238281 154.40625 244.945312 153.101562 L 261.5625 140.394531 L 244.945312 127.6875 C 243.238281 126.382812 242.914062 123.9375 244.214844 122.226562 C 245.519531 120.519531 247.960938 120.191406 249.667969 121.496094 L 270.332031 137.300781 C 271.292969 138.035156 271.863281 139.179688 271.863281 140.394531 C 271.863281 141.609375 271.296875 142.75 270.332031 143.488281 L 249.667969 159.289062 C 248.964844 159.832031 248.132812 160.089844 247.3125 160.09375 " fill-opacity="1" fill-rule="evenodd"/><path fill="#231f20" d="M 223.109375 168.484375 C 222.765625 168.484375 222.410156 168.433594 222.0625 168.335938 C 219.992188 167.757812 218.785156 165.609375 219.363281 163.539062 L 232.867188 115.152344 C 233.445312 113.078125 235.589844 111.871094 237.660156 112.449219 C 239.730469 113.027344 240.9375 115.175781 240.359375 117.25 L 226.855469 165.636719 C 226.375 167.355469 224.8125 168.484375 223.109375 168.484375 " fill-opacity="1" fill-rule="evenodd"/></svg>