<svg xmlns="http://www.w3.org/2000/svg" xmlns:xlink="http://www.w3.org/1999/xlink" width="500" zoomAndPan="magnify" viewBox="0 0 375 374.999991" height="500" preserveAspectRatio="xMidYMid meet" version="1.0"><defs><clipPath id="935a7e4dcf"><path d="M 99.308594 108.570312 L 275.558594 108.570312 L 275.558594 266.070312 L 99.308594 266.070312 Z M 99.308594 108.570312 " clip-rule="nonzero"/></clipPath></defs><g clip-path="url(#935a7e4dcf)"><path fill="#000002" d="M 234.457031 207.523438 C 233.628906 207.523438 232.804688 207.210938 232.289062 206.386719 L 226.09375 197.730469 L 219.589844 206.492188 C 217.527344 209.273438 213.292969 206.078125 215.359375 203.296875 L 222.894531 193.195312 L 215.5625 182.988281 C 213.5 180.207031 217.835938 177.011719 219.898438 179.898438 L 226.195312 188.761719 L 232.597656 180.207031 C 234.660156 177.421875 238.894531 180.617188 236.828125 183.402344 L 229.5 193.296875 L 236.625 203.296875 C 237.863281 205.046875 236.519531 207.523438 234.457031 207.523438 Z M 238.480469 144.953125 L 136.28125 144.953125 C 132.875 144.953125 132.875 139.699219 136.28125 139.699219 L 238.480469 139.699219 C 241.992188 139.699219 241.992188 144.953125 238.480469 144.953125 Z M 238.480469 159.902344 L 136.28125 159.902344 C 132.875 159.902344 132.875 154.539062 136.28125 154.539062 L 238.480469 154.539062 C 241.992188 154.539062 241.992188 159.902344 238.480469 159.902344 Z M 257.785156 233.804688 L 257.785156 140.007812 C 257.785156 125.578125 249.421875 113.929688 239.203125 113.929688 L 135.664062 113.929688 C 125.339844 113.929688 117.082031 125.578125 117.082031 140.007812 L 117.082031 233.804688 L 172.3125 233.804688 L 172.414062 233.910156 L 172.621094 233.910156 L 172.722656 234.011719 L 172.929688 234.011719 L 172.929688 234.117188 L 173.035156 234.117188 L 173.136719 234.21875 L 173.238281 234.21875 L 173.34375 234.320312 L 173.445312 234.425781 L 173.550781 234.425781 L 173.550781 234.527344 L 173.652344 234.527344 C 173.652344 234.628906 174.375 235.660156 174.375 236.484375 L 174.375 244.421875 L 200.390625 244.421875 L 200.390625 236.484375 C 200.390625 234.527344 201.421875 234.425781 202.558594 233.804688 Z M 111.714844 233.804688 L 111.714844 140.007812 C 111.714844 122.691406 122.449219 108.570312 135.664062 108.570312 L 239.203125 108.570312 C 252.417969 108.570312 263.152344 122.691406 263.152344 140.007812 L 263.152344 233.804688 L 272.855469 233.804688 C 274.300781 233.804688 275.542969 234.941406 275.542969 236.484375 C 275.542969 252.773438 262.222656 266.070312 245.8125 266.070312 L 129.058594 266.070312 C 112.644531 266.070312 99.328125 252.773438 99.328125 236.484375 C 99.328125 234.941406 100.566406 233.804688 102.011719 233.804688 Z M 169.109375 239.0625 L 104.796875 239.0625 C 106.140625 251.226562 116.464844 260.8125 129.058594 260.8125 L 245.8125 260.8125 C 258.300781 260.8125 268.726562 251.226562 270.070312 239.0625 L 205.757812 239.0625 L 205.757812 247.101562 C 205.757812 248.546875 204.519531 249.78125 203.074219 249.78125 L 171.691406 249.78125 C 170.246094 249.78125 169.109375 248.648438 169.109375 247.101562 Z M 173.757812 213.292969 C 172 213.292969 170.660156 211.644531 171.175781 209.894531 L 180.980469 173.199219 C 181.910156 169.898438 187.074219 171.34375 186.144531 174.640625 L 176.335938 211.335938 C 176.027344 212.46875 174.890625 213.292969 173.757812 213.292969 Z M 199.976562 207.625 C 194.09375 207.625 189.652344 203.8125 189.964844 197.730469 L 189.964844 181.339844 C 189.964844 177.9375 195.226562 177.9375 195.226562 181.339844 C 195.226562 184.640625 195.433594 195.769531 195.226562 198.140625 C 194.710938 203.707031 205.136719 203.707031 204.621094 198.140625 C 204.414062 195.875 204.621094 184.535156 204.621094 181.339844 C 204.621094 177.9375 209.988281 177.9375 209.988281 181.339844 L 209.988281 197.730469 C 210.195312 203.8125 205.757812 207.625 199.976562 207.625 Z M 147.535156 205.871094 C 141.652344 205.871094 137.210938 202.058594 137.523438 195.976562 L 137.523438 179.589844 C 137.523438 176.1875 142.785156 176.1875 142.785156 179.589844 C 142.785156 182.988281 142.992188 193.8125 142.785156 196.390625 C 142.375 201.957031 152.695312 201.957031 152.179688 196.390625 C 151.972656 193.8125 152.179688 182.988281 152.179688 179.589844 C 152.179688 176.1875 157.546875 176.1875 157.546875 179.589844 L 157.546875 195.976562 C 157.753906 202.058594 153.316406 205.871094 147.535156 205.871094 Z M 165.394531 205.769531 C 163.949219 205.769531 162.710938 204.636719 162.710938 203.089844 L 162.710938 179.691406 C 162.710938 176.1875 168.078125 176.1875 168.078125 179.691406 L 168.078125 203.089844 C 168.078125 204.636719 166.839844 205.769531 165.394531 205.769531 Z M 165.394531 205.769531 " fill-opacity="1" fill-rule="evenodd"/></g></svg>