<svg xmlns="http://www.w3.org/2000/svg" xmlns:xlink="http://www.w3.org/1999/xlink" width="250" zoomAndPan="magnify" viewBox="0 0 187.5 74.999997" height="100" preserveAspectRatio="xMidYMid meet" version="1.0"><defs><g/><clipPath id="c834cdc1a0"><path d="M 15.890625 21.546875 L 31.109375 21.546875 L 31.109375 35.535156 L 15.890625 35.535156 Z M 15.890625 21.546875 " clip-rule="nonzero"/></clipPath><clipPath id="fb5e5bdfee"><path d="M 0.675781 21.546875 L 15.890625 21.546875 L 15.890625 35.535156 L 0.675781 35.535156 Z M 0.675781 21.546875 " clip-rule="nonzero"/></clipPath><clipPath id="d436be7704"><path d="M 0.675781 35.535156 L 15.890625 35.535156 L 15.890625 49.523438 L 0.675781 49.523438 Z M 0.675781 35.535156 " clip-rule="nonzero"/></clipPath><clipPath id="12424f731f"><path d="M 168.074219 46.519531 L 171.792969 46.519531 L 171.792969 49.523438 L 168.074219 49.523438 Z M 168.074219 46.519531 " clip-rule="nonzero"/></clipPath><clipPath id="75b3640097"><path d="M 169.929688 46.519531 C 168.90625 46.519531 168.074219 47.191406 168.074219 48.019531 C 168.074219 48.851562 168.90625 49.523438 169.929688 49.523438 C 170.953125 49.523438 171.785156 48.851562 171.785156 48.019531 C 171.785156 47.191406 170.953125 46.519531 169.929688 46.519531 Z M 169.929688 46.519531 " clip-rule="nonzero"/></clipPath><clipPath id="0a8ffd1254"><path d="M 173.625 46.519531 L 177.347656 46.519531 L 177.347656 49.523438 L 173.625 49.523438 Z M 173.625 46.519531 " clip-rule="nonzero"/></clipPath><clipPath id="863db6e9a8"><path d="M 175.484375 46.519531 C 174.457031 46.519531 173.625 47.191406 173.625 48.019531 C 173.625 48.851562 174.457031 49.523438 175.484375 49.523438 C 176.507812 49.523438 177.339844 48.851562 177.339844 48.019531 C 177.339844 47.191406 176.507812 46.519531 175.484375 46.519531 Z M 175.484375 46.519531 " clip-rule="nonzero"/></clipPath><clipPath id="f91ad4f92a"><path d="M 179.179688 46.519531 L 182.898438 46.519531 L 182.898438 49.523438 L 179.179688 49.523438 Z M 179.179688 46.519531 " clip-rule="nonzero"/></clipPath><clipPath id="42d4ab747b"><path d="M 181.035156 46.519531 C 180.011719 46.519531 179.179688 47.191406 179.179688 48.019531 C 179.179688 48.851562 180.011719 49.523438 181.035156 49.523438 C 182.0625 49.523438 182.894531 48.851562 182.894531 48.019531 C 182.894531 47.191406 182.0625 46.519531 181.035156 46.519531 Z M 181.035156 46.519531 " clip-rule="nonzero"/></clipPath></defs><g clip-path="url(#c834cdc1a0)"><path fill="#98e1f1" d="M 15.890625 21.546875 L 31.082031 21.546875 L 31.082031 35.535156 L 15.890625 35.535156 Z M 15.890625 21.546875 " fill-opacity="1" fill-rule="nonzero"/></g><g clip-path="url(#fb5e5bdfee)"><path fill="#ffde59" d="M 0.675781 21.546875 L 15.863281 21.546875 L 15.863281 35.535156 L 0.675781 35.535156 Z M 0.675781 21.546875 " fill-opacity="1" fill-rule="nonzero"/></g><g clip-path="url(#d436be7704)"><path fill="#ff8210" d="M 0.675781 35.535156 L 15.863281 35.535156 L 15.863281 49.523438 L 0.675781 49.523438 Z M 0.675781 35.535156 " fill-opacity="1" fill-rule="nonzero"/></g><g fill="#000000" fill-opacity="1"><g transform="translate(16.901168, 49.113547)"><g><path d="M 3.902344 -5.652344 L 7.902344 0 L 11.65625 0 L 6.617188 -6.320312 L 11.46875 -12.640625 L 7.902344 -12.640625 L 3.902344 -6.992188 L 3.902344 -12.640625 L 1.117188 -12.640625 L 1.117188 0 L 3.902344 0 Z M 3.902344 -5.652344 "/></g></g></g><g fill="#000000" fill-opacity="1"><g transform="translate(28.371831, 49.113547)"><g><path d="M 7.53125 -4.089844 C 7.53125 -3.011719 6.691406 -2.046875 5.578125 -2.046875 C 4.460938 -2.046875 3.625 -3.011719 3.625 -4.089844 C 3.625 -5.167969 4.460938 -6.136719 5.578125 -6.136719 C 6.691406 -6.136719 7.53125 -5.167969 7.53125 -4.089844 Z M 10.316406 -8.179688 L 7.53125 -8.179688 L 7.53125 -7.195312 C 6.804688 -8.085938 5.761719 -8.382812 4.722656 -8.382812 C 2.398438 -8.382812 0.652344 -6.359375 0.652344 -4.089844 C 0.652344 -1.820312 2.398438 0.1875 4.722656 0.1875 C 5.761719 0.1875 6.972656 -0.148438 7.53125 -0.984375 L 7.53125 0 L 10.316406 0 Z M 10.316406 -8.179688 "/></g></g></g><g fill="#000000" fill-opacity="1"><g transform="translate(39.805322, 49.113547)"><g><path d="M 9.351562 -8.199219 L 6.527344 -8.199219 L 4.574219 -2.34375 L 2.621094 -8.199219 L -0.1875 -8.199219 L 2.9375 0 L 6.226562 0 Z M 9.351562 -8.199219 "/></g></g></g><g fill="#000000" fill-opacity="1"><g transform="translate(48.970704, 49.113547)"><g><path d="M 7.53125 -4.089844 C 7.53125 -3.011719 6.691406 -2.046875 5.578125 -2.046875 C 4.460938 -2.046875 3.625 -3.011719 3.625 -4.089844 C 3.625 -5.167969 4.460938 -6.136719 5.578125 -6.136719 C 6.691406 -6.136719 7.53125 -5.167969 7.53125 -4.089844 Z M 10.316406 -8.179688 L 7.53125 -8.179688 L 7.53125 -7.195312 C 6.804688 -8.085938 5.761719 -8.382812 4.722656 -8.382812 C 2.398438 -8.382812 0.652344 -6.359375 0.652344 -4.089844 C 0.652344 -1.820312 2.398438 0.1875 4.722656 0.1875 C 5.761719 0.1875 6.972656 -0.148438 7.53125 -0.984375 L 7.53125 0 L 10.316406 0 Z M 10.316406 -8.179688 "/></g></g></g><g fill="#000000" fill-opacity="1"><g transform="translate(60.404195, 49.113547)"><g><path d="M 9.5 -4.648438 C 9.5 -6.878906 8.609375 -8.382812 6.414062 -8.382812 C 5.335938 -8.382812 4.460938 -7.902344 3.902344 -7.195312 L 3.902344 -8.199219 L 1.117188 -8.199219 L 1.117188 0 L 3.902344 0 L 3.902344 -4.089844 C 3.902344 -5.207031 4.59375 -6.136719 5.464844 -6.136719 C 6.339844 -6.136719 6.710938 -5.613281 6.710938 -4.648438 L 6.710938 0 L 9.5 0 Z M 9.5 -4.648438 "/></g></g></g><g fill="#000000" fill-opacity="1"><g transform="translate(70.74081, 49.113547)"><g><path d="M 7.53125 -4.089844 C 7.53125 -3.011719 6.691406 -2.046875 5.578125 -2.046875 C 4.460938 -2.046875 3.625 -3.011719 3.625 -4.089844 C 3.625 -5.167969 4.460938 -6.136719 5.578125 -6.136719 C 6.691406 -6.136719 7.53125 -5.167969 7.53125 -4.089844 Z M 10.316406 -8.179688 L 7.53125 -8.179688 L 7.53125 -7.195312 C 6.804688 -8.085938 5.761719 -8.382812 4.722656 -8.382812 C 2.398438 -8.382812 0.652344 -6.359375 0.652344 -4.089844 C 0.652344 -1.820312 2.398438 0.1875 4.722656 0.1875 C 5.761719 0.1875 6.972656 -0.148438 7.53125 -0.984375 L 7.53125 0 L 10.316406 0 Z M 10.316406 -8.179688 "/></g></g></g><g fill="#000000" fill-opacity="1"><g transform="translate(82.174301, 49.113547)"><g><path d="M 9.5 -4.648438 C 9.5 -6.878906 8.609375 -8.382812 6.414062 -8.382812 C 5.335938 -8.382812 4.460938 -7.902344 3.902344 -7.195312 L 3.902344 -8.199219 L 1.117188 -8.199219 L 1.117188 0 L 3.902344 0 L 3.902344 -4.089844 C 3.902344 -5.207031 4.59375 -6.136719 5.464844 -6.136719 C 6.339844 -6.136719 6.710938 -5.613281 6.710938 -4.648438 L 6.710938 0 L 9.5 0 Z M 9.5 -4.648438 "/></g></g></g><g fill="#000000" fill-opacity="1"><g transform="translate(92.510917, 49.113547)"><g><path d="M 4.628906 -6.042969 L 6.117188 -6.042969 L 6.117188 -8.199219 L 4.628906 -8.199219 L 4.628906 -11.320312 L 1.859375 -11.320312 L 1.859375 -8.199219 L 0.371094 -8.199219 L 0.371094 -6.042969 L 1.859375 -6.042969 L 1.859375 0 L 4.628906 0 Z M 4.628906 -6.042969 "/></g></g></g><g fill="#000000" fill-opacity="1"><g transform="translate(103.646947, 49.113547)"><g><path d="M 7.4375 -10.226562 C 8.664062 -10.226562 9.925781 -9.722656 10.542969 -8.382812 L 13.609375 -8.382812 C 12.734375 -11.007812 10.226562 -12.828125 7.4375 -12.828125 C 3.867188 -12.828125 0.929688 -9.890625 0.929688 -6.320312 C 0.929688 -2.75 3.867188 0.1875 7.4375 0.1875 C 11.042969 0.1875 13.925781 -2.734375 13.925781 -6.320312 L 13.925781 -6.75 L 7.695312 -6.75 L 7.695312 -4.648438 L 10.914062 -4.648438 C 10.226562 -2.734375 8.664062 -2.34375 7.4375 -2.34375 C 5.429688 -2.34375 3.753906 -4.144531 3.753906 -6.285156 C 3.753906 -8.421875 5.429688 -10.226562 7.4375 -10.226562 Z M 7.4375 -10.226562 "/></g></g></g><g fill="#000000" fill-opacity="1"><g transform="translate(118.222319, 49.113547)"><g><path d="M 3.902344 0 L 3.902344 -13.941406 L 1.117188 -13.941406 L 1.117188 0 Z M 3.902344 0 "/></g></g></g><g fill="#000000" fill-opacity="1"><g transform="translate(123.241897, 49.113547)"><g><path d="M 5.335938 -1.933594 C 3.828125 -1.933594 3.421875 -3.03125 3.421875 -4.070312 C 3.421875 -5.09375 3.867188 -6.191406 5.335938 -6.191406 C 6.785156 -6.191406 7.230469 -5.09375 7.230469 -4.070312 C 7.230469 -3.03125 6.824219 -1.933594 5.335938 -1.933594 Z M 5.335938 -8.367188 C 2.769531 -8.367188 0.652344 -6.65625 0.652344 -4.089844 C 0.652344 -1.46875 2.714844 0.167969 5.335938 0.167969 C 7.9375 0.167969 10.003906 -1.46875 10.003906 -4.089844 C 10.003906 -6.65625 7.882812 -8.367188 5.335938 -8.367188 Z M 5.335938 -8.367188 "/></g></g></g><g fill="#000000" fill-opacity="1"><g transform="translate(133.894553, 49.113547)"><g><path d="M 3.902344 -4.089844 C 3.902344 -5.167969 4.742188 -6.136719 5.855469 -6.136719 C 6.972656 -6.136719 7.808594 -5.167969 7.808594 -4.089844 C 7.808594 -3.011719 6.972656 -2.046875 5.855469 -2.046875 C 4.742188 -2.046875 3.902344 -3.011719 3.902344 -4.089844 Z M 3.902344 0 L 3.902344 -0.984375 C 4.460938 -0.148438 5.652344 0.1875 6.710938 0.1875 C 9.035156 0.1875 10.78125 -1.820312 10.78125 -4.089844 C 10.78125 -6.359375 9.035156 -8.382812 6.710938 -8.382812 C 5.652344 -8.382812 4.628906 -8.085938 3.902344 -7.195312 L 3.902344 -13.941406 L 1.117188 -13.941406 L 1.117188 0 Z M 3.902344 0 "/></g></g></g><g fill="#000000" fill-opacity="1"><g transform="translate(145.328044, 49.113547)"><g><path d="M 7.53125 -4.089844 C 7.53125 -3.011719 6.691406 -2.046875 5.578125 -2.046875 C 4.460938 -2.046875 3.625 -3.011719 3.625 -4.089844 C 3.625 -5.167969 4.460938 -6.136719 5.578125 -6.136719 C 6.691406 -6.136719 7.53125 -5.167969 7.53125 -4.089844 Z M 10.316406 -8.179688 L 7.53125 -8.179688 L 7.53125 -7.195312 C 6.804688 -8.085938 5.761719 -8.382812 4.722656 -8.382812 C 2.398438 -8.382812 0.652344 -6.359375 0.652344 -4.089844 C 0.652344 -1.820312 2.398438 0.1875 4.722656 0.1875 C 5.761719 0.1875 6.972656 -0.148438 7.53125 -0.984375 L 7.53125 0 L 10.316406 0 Z M 10.316406 -8.179688 "/></g></g></g><g fill="#000000" fill-opacity="1"><g transform="translate(156.761534, 49.113547)"><g><path d="M 3.902344 0 L 3.902344 -13.941406 L 1.117188 -13.941406 L 1.117188 0 Z M 3.902344 0 "/></g></g></g><g clip-path="url(#12424f731f)"><g clip-path="url(#75b3640097)"><path fill="#ffde59" d="M 168.074219 46.519531 L 171.78125 46.519531 L 171.78125 49.523438 L 168.074219 49.523438 Z M 168.074219 46.519531 " fill-opacity="1" fill-rule="nonzero"/></g></g><g clip-path="url(#0a8ffd1254)"><g clip-path="url(#863db6e9a8)"><path fill="#ff8210" d="M 173.625 46.519531 L 177.335938 46.519531 L 177.335938 49.523438 L 173.625 49.523438 Z M 173.625 46.519531 " fill-opacity="1" fill-rule="nonzero"/></g></g><g clip-path="url(#f91ad4f92a)"><g clip-path="url(#42d4ab747b)"><path fill="#98e1f1" d="M 179.179688 46.519531 L 182.886719 46.519531 L 182.886719 49.523438 L 179.179688 49.523438 Z M 179.179688 46.519531 " fill-opacity="1" fill-rule="nonzero"/></g></g></svg>